<?xml version="1.0" standalone="no"?><!DOCTYPE svg PUBLIC "-//W3C//DTD SVG 1.1//EN" "http://www.w3.org/Graphics/SVG/1.1/DTD/svg11.dtd"><svg t="1512460284395" class="icon" style="" viewBox="0 0 1025 1024" version="1.1" xmlns="http://www.w3.org/2000/svg" p-id="3814" xmlns:xlink="http://www.w3.org/1999/xlink" width="200.1953125" height="200"><defs><style type="text/css"></style></defs><path d="M522.25025 58.938939L944.560561 276.756757l-422.310311 230.63063L76.876877 276.244244l445.373373-217.305305m0-58.938939c-5.125125 0-12.812813 2.562563-17.937938 5.125125L23.063063 240.880881C10.25025 246.006006 0 261.381381 0 276.756757s7.687688 30.750751 23.063063 35.875876l478.686687 248.568568c5.125125 2.562563 12.812813 5.125125 17.937938 5.125125 7.687688 0 12.812813-2.562563 20.5005-5.125125L998.374374 312.632633c12.812813-7.687688 20.500501-20.500501 20.500501-35.875876s-7.687688-28.188188-23.063063-35.875876L540.188188 5.125125c-5.125125-2.562563-12.812813-5.125125-17.937938-5.125125z m5.125125 803.61962c-10.25025 0-20.500501-2.562563-30.75075-7.687688L15.375375 529.937938c-12.812813-7.687688-17.937938-25.625626-10.25025-38.438439s23.063063-17.937938 38.438439-12.812812l481.249249 265.993994h7.687688l450.498498-255.743744c7.687688-2.562563 15.375375-5.125125 20.5005-2.562563 7.687688 2.562563 12.812813 7.687688 17.937938 12.812813 2.562563 7.687688 5.125125 15.375375 2.562563 20.500501-2.562563 7.687688-7.687688 12.812813-12.812813 17.937938l-450.498498 256.256256c-12.812813 7.175175-23.063063 9.737738-33.313314 9.737738z m0 220.38038c-10.25025 0-20.500501-2.562563-30.75075-7.687688L15.375375 750.318318c-7.687688-2.562563-12.812813-10.25025-12.812812-17.937938-2.562563-7.687688-2.562563-15.375375 0-20.5005 7.687688-12.812813 25.625626-17.937938 38.438438-10.25025l481.249249 265.993994h7.687688l450.498498-256.256257c7.687688-2.562563 15.375375-5.125125 20.500501-2.562562 7.687688 2.562563 12.812813 7.687688 17.937938 12.812813s5.125125 12.812813 5.125125 20.5005c-2.562563 7.687688-7.687688 12.812813-12.812813 17.937938l-450.498498 255.743744c-12.812813 5.637638-23.063063 8.2002-33.313314 8.2002z" p-id="3815"></path></svg>