<?xml version="1.0" standalone="no"?><!DOCTYPE svg PUBLIC "-//W3C//DTD SVG 1.1//EN" "http://www.w3.org/Graphics/SVG/1.1/DTD/svg11.dtd"><svg t="1512916553966" class="icon" style="" viewBox="0 0 1024 1024" version="1.1" xmlns="http://www.w3.org/2000/svg" p-id="25058" xmlns:xlink="http://www.w3.org/1999/xlink" width="200" height="200"><defs><style type="text/css"></style></defs><path d="M471.04 15.36c5.12 0 7.68-2.56 12.8-2.56h56.32c10.24 0 17.92 2.56 28.16 2.56 5.12 0 7.68 2.56 10.24 2.56v5.12h-7.68c-2.56 0-2.56 0-5.12 2.56h-10.24c-2.56 2.56-7.68 2.56-12.8 2.56-2.56 0-2.56 0-5.12 2.56h-5.12c-2.56 0-7.68 2.56-10.24 2.56-2.56 2.56-7.68 2.56-10.24 2.56-2.56 2.56-5.12 2.56-7.68 2.56-2.56 0-5.12 2.56-7.68 2.56-5.12 2.56-10.24 5.12-15.36 5.12-30.72 12.8-61.44 25.6-87.04 43.52-10.24 5.12-17.92 12.8-25.6 17.92-10.24 7.68-17.92 12.8-23.04 20.48l-25.6 25.6c-10.24 12.8-20.48 23.04-30.72 38.4-15.36 23.04-28.16 46.08-38.4 69.12-2.56 5.12-5.12 12.8-7.68 17.92-7.68 23.04-15.36 48.64-20.48 74.24 0 5.12-2.56 12.8-2.56 17.92 0 5.12-2.56 7.68-2.56 12.8s-2.56 10.24-2.56 15.36c0 5.12-2.56 12.8-2.56 17.92v66.56c2.56 7.68 0 17.92 2.56 25.6v23.04c0 2.56 0 7.68 2.56 10.24 2.56 7.68 0 15.36 2.56 23.04 0 5.12 0 10.24 2.56 15.36V614.4c-2.56 20.48-10.24 38.4-23.04 53.76-15.36 17.92-38.4 28.16-61.44 30.72h-23.04c-12.8-2.56-23.04-5.12-33.28-12.8-10.24-5.12-17.92-12.8-25.6-20.48-7.68-10.24-15.36-20.48-17.92-33.28-10.24-35.84-17.92-71.68-17.92-107.52-2.56-7.68 0-15.36 0-20.48V486.4c2.56-7.68 0-17.92 0-25.6 2.56-10.24 2.56-20.48 5.12-33.28 0-5.12 2.56-10.24 2.56-15.36 15.36-79.36 48.64-153.6 99.84-215.04 0-5.12 5.12-10.24 10.24-17.92 10.24-12.8 20.48-23.04 33.28-33.28 10.24-7.68 17.92-17.92 28.16-25.6 12.8-10.24 28.16-23.04 43.52-30.72 15.36-10.24 30.72-17.92 46.08-25.6 25.6-12.8 53.76-23.04 79.36-30.72 7.68-2.56 17.92-5.12 25.6-7.68 5.12 0 12.8-2.56 17.92-2.56 2.56 0 7.68-2.56 10.24-2.56 5.12 0 10.24-2.56 15.36-2.56 5.12 0 10.24 0 15.36-2.56h17.92z" fill="#FFCD17" p-id="25059"></path><path d="M591.36 33.28c5.12 0 10.24-2.56 15.36-2.56h17.92c53.76 7.68 104.96 28.16 151.04 56.32l23.04 15.36c38.4 25.6 69.12 56.32 99.84 92.16 20.48 25.6 38.4 51.2 53.76 81.92 15.36 30.72 28.16 61.44 38.4 94.72 5.12 17.92 10.24 38.4 12.8 58.88 2.56 5.12 0 12.8 2.56 20.48 2.56 5.12 0 12.8 2.56 20.48 2.56 17.92 2.56 35.84 2.56 53.76 0 10.24 0 20.48-2.56 30.72 0 5.12 0 12.8-2.56 17.92-2.56 7.68 0 15.36-2.56 20.48-5.12 30.72-12.8 61.44-23.04 89.6-7.68 17.92-12.8 33.28-20.48 51.2-2.56 5.12-5.12 12.8-10.24 17.92v2.56l-23.04 38.4c-5.12 5.12-7.68 12.8-15.36 15.36-2.56-2.56-5.12-2.56-2.56-5.12 2.56-5.12 2.56-7.68 5.12-12.8 0-2.56 0-2.56 2.56-5.12 0-2.56 0-2.56 2.56-2.56v-2.56c0-2.56 2.56-7.68 2.56-10.24 5.12-12.8 7.68-25.6 10.24-38.4 0-5.12 2.56-12.8 5.12-17.92 0-7.68 2.56-12.8 2.56-17.92 0-5.12 2.56-10.24 2.56-15.36v-23.04c2.56-5.12 0-10.24 0-17.92v-12.8-23.04c0-5.12-2.56-12.8-2.56-17.92-2.56-25.6-10.24-48.64-17.92-71.68 0 0 0-2.56-2.56-2.56l-7.68-23.04c0-2.56-2.56-2.56-2.56-5.12-2.56-2.56-2.56-7.68-5.12-10.24 0-2.56-2.56-2.56-2.56-5.12-10.24-20.48-25.6-40.96-38.4-61.44-5.12-7.68-12.8-15.36-17.92-23.04-5.12-7.68-12.8-12.8-17.92-20.48-2.56-5.12-7.68-7.68-10.24-10.24-5.12-5.12-10.24-10.24-17.92-15.36-5.12-5.12-7.68-7.68-12.8-10.24L724.48 281.6c-7.68-5.12-15.36-7.68-20.48-12.8-2.56 0-2.56-2.56-5.12-2.56s-2.56-2.56-5.12-2.56c-7.68-5.12-17.92-7.68-25.6-12.8-2.56 0-2.56-2.56-5.12-2.56s-2.56-2.56-5.12-2.56-2.56-2.56-5.12-2.56c-10.24-5.12-17.92-7.68-28.16-12.8-10.24-5.12-17.92-7.68-28.16-12.8-2.56 0-2.56-2.56-5.12-2.56s-2.56-2.56-5.12-2.56c-2.56-2.56-7.68-2.56-10.24-5.12h-2.56c-7.68-5.12-15.36-10.24-20.48-17.92-7.68-7.68-12.8-15.36-17.92-25.6-5.12-10.24-7.68-23.04-7.68-35.84 0-5.12 2.56-10.24 2.56-15.36 5.12-20.48 12.8-38.4 28.16-51.2 2.56-15.36 17.92-23.04 33.28-28.16z" fill="#40C33C" p-id="25060"></path><path d="M481.28 299.52c5.12 0 12.8-2.56 17.92-2.56h33.28c7.68 0 12.8 2.56 20.48 2.56 5.12 0 10.24 2.56 15.36 2.56 10.24 2.56 23.04 7.68 33.28 12.8 7.68 5.12 12.8 7.68 20.48 12.8 15.36 12.8 25.6 28.16 35.84 46.08 5.12 12.8 10.24 25.6 12.8 38.4 0 5.12 2.56 12.8 2.56 17.92s2.56 12.8 2.56 17.92v23.04c0 2.56 2.56 5.12 2.56 7.68 5.12 7.68 10.24 15.36 15.36 25.6 10.24 23.04 20.48 43.52 25.6 66.56 2.56 5.12 0 12.8 0 20.48-2.56 2.56-5.12 5.12-7.68 5.12-12.8 0-25.6-5.12-33.28-15.36l-7.68-7.68c-5.12 5.12-7.68 10.24-10.24 17.92-5.12 10.24-12.8 20.48-17.92 33.28 5.12 5.12 12.8 5.12 17.92 7.68 7.68 5.12 12.8 10.24 17.92 17.92 0 5.12 0 12.8-5.12 15.36-7.68 7.68-17.92 12.8-30.72 15.36-10.24 2.56-20.48 5.12-33.28 5.12-12.8 2.56-25.6 0-40.96 0-10.24 0-17.92-2.56-28.16-7.68-10.24-2.56-20.48-7.68-33.28-7.68-10.24 2.56-20.48 7.68-30.72 10.24-7.68 2.56-15.36 2.56-23.04 5.12h-23.04c-7.68 0-15.36-2.56-20.48-2.56-12.8-2.56-25.6-5.12-35.84-10.24-5.12-5.12-12.8-7.68-15.36-15.36-2.56-2.56 0-7.68 2.56-10.24 5.12-10.24 15.36-17.92 25.6-20.48 2.56 0 5.12-2.56 5.12-5.12s-2.56-5.12-2.56-10.24c-5.12-10.24-12.8-20.48-17.92-33.28-2.56-2.56-2.56-5.12-5.12-7.68-5.12 0-5.12 2.56-7.68 5.12-7.68 7.68-17.92 15.36-30.72 15.36-2.56 0-7.68 0-10.24-5.12 0-5.12 2.56-12.8 2.56-17.92 5.12-28.16 15.36-56.32 30.72-81.92 2.56-5.12 7.68-7.68 10.24-12.8 2.56-2.56 0-7.68 0-10.24 0-7.68 2.56-12.8 2.56-20.48 2.56-7.68 0-15.36 2.56-20.48 2.56-12.8 5.12-28.16 10.24-40.96s12.8-23.04 17.92-35.84c5.12-5.12 7.68-10.24 12.8-15.36 5.12-5.12 10.24-10.24 15.36-12.8 7.68-5.12 15.36-7.68 23.04-12.8 5.12-2.56 10.24-5.12 17.92-5.12 7.68 0 12.8 2.56 17.92 0z" fill="#3E97DA" p-id="25061"></path><path d="M791.04 698.88c7.68-2.56 15.36 0 20.48 0 15.36 2.56 28.16 7.68 40.96 17.92 5.12 2.56 10.24 7.68 12.8 12.8 5.12 5.12 10.24 12.8 12.8 17.92 5.12 10.24 7.68 17.92 10.24 28.16v20.48c0 12.8-5.12 25.6-7.68 38.4-2.56 5.12-5.12 10.24-7.68 12.8-7.68 10.24-15.36 15.36-23.04 25.6-5.12 7.68-15.36 12.8-23.04 20.48-7.68 7.68-15.36 12.8-25.6 20.48-10.24 10.24-23.04 15.36-35.84 25.6-15.36 7.68-30.72 17.92-48.64 25.6-23.04 10.24-48.64 20.48-71.68 25.6-17.92 5.12-38.4 10.24-56.32 12.8-5.12 2.56-12.8 0-20.48 2.56-7.68 2.56-12.8 0-20.48 2.56-7.68 0-15.36 0-20.48 2.56-17.92 0-35.84 0-53.76-2.56-7.68-2.56-12.8 0-20.48-2.56-5.12-2.56-12.8 0-20.48-2.56-33.28-5.12-64-12.8-94.72-25.6-23.04-7.68-46.08-17.92-66.56-30.72-5.12-5.12-12.8-7.68-17.92-10.24-25.6-15.36-48.64-33.28-71.68-51.2-5.12-5.12-10.24-10.24-17.92-15.36-5.12-5.12-12.8-10.24-15.36-15.36-12.8-12.8-25.6-28.16-38.4-43.52-17.92-23.04-30.72-46.08-43.52-71.68-2.56-5.12-7.68-12.8-7.68-17.92l-2.56-2.56c0-2.56-2.56-5.12-2.56-7.68l2.56-2.56c5.12 2.56 7.68 7.68 12.8 12.8 5.12 7.68 10.24 10.24 15.36 17.92 7.68 2.56 12.8 7.68 17.92 12.8 7.68 5.12 12.8 12.8 23.04 20.48 5.12 2.56 10.24 7.68 15.36 12.8 20.48 15.36 40.96 30.72 64 40.96 7.68 5.12 15.36 7.68 25.6 12.8 7.68 2.56 17.92 5.12 25.6 10.24 10.24 2.56 20.48 7.68 30.72 7.68 5.12 2.56 12.8 2.56 17.92 5.12 5.12 0 10.24 2.56 15.36 2.56 5.12 0 10.24 2.56 15.36 2.56h28.16c7.68 2.56 15.36 0 23.04 0 5.12-2.56 12.8 0 17.92 0h12.8c7.68 0 15.36-2.56 20.48-2.56 5.12 0 10.24-2.56 15.36-2.56 10.24-2.56 23.04-5.12 33.28-7.68 15.36-2.56 30.72-7.68 43.52-12.8 10.24-2.56 17.92-7.68 28.16-10.24 20.48-7.68 40.96-17.92 58.88-28.16 7.68-5.12 15.36-7.68 23.04-12.8l23.04-15.36c7.68-5.12 15.36-10.24 20.48-15.36 7.68-2.56 12.8-7.68 17.92-12.8 12.8-7.68 23.04-17.92 35.84-25.6 7.68-2.56 12.8-7.68 17.92-10.24 12.8-7.68 25.6-12.8 35.84-12.8z" fill="#F02325" p-id="25062"></path></svg>