<?xml version="1.0" standalone="no"?><!DOCTYPE svg PUBLIC "-//W3C//DTD SVG 1.1//EN" "http://www.w3.org/Graphics/SVG/1.1/DTD/svg11.dtd"><svg t="1512636846661" class="icon" style="" viewBox="0 0 1024 1024" version="1.1" xmlns="http://www.w3.org/2000/svg" p-id="4149" xmlns:xlink="http://www.w3.org/1999/xlink" width="200" height="200"><defs><style type="text/css"></style></defs><path d="M269.8 939.87a35.33 35.33 0 0 1-34.6-41.2l45.4-264.8-192.4-187.6a35.1 35.1 0 0 1 19.5-59.9l265.9-38.6 118.9-241a35.11 35.11 0 0 1 63 0l118.9 241 265.9 38.6a35.1 35.1 0 0 1 19.5 59.9l-192.4 187.6 45.4 264.9a35.18 35.18 0 0 1-51 37.1l-237.8-125-237.9 125a36.32 36.32 0 0 1-16.3 4zM524 759.57a23.54 23.54 0 0 1 11.2 2.8l226 118.8-43.2-251.6a23.87 23.87 0 0 1 6.9-21.2l182.8-178.2-252.7-36.7a23.93 23.93 0 0 1-18.1-13.1l-113-229-113 229a23.93 23.93 0 0 1-18.1 13.1l-252.7 36.7 182.8 178.2a24 24 0 0 1 6.9 21.2l-43.2 251.6 226-118.8a26.24 26.24 0 0 1 11.4-2.8zM512.5 128z" p-id="4150"></path></svg>