<?xml version="1.0" standalone="no"?><!DOCTYPE svg PUBLIC "-//W3C//DTD SVG 1.1//EN" "http://www.w3.org/Graphics/SVG/1.1/DTD/svg11.dtd"><svg t="1500263422367" class="icon" style="" viewBox="0 0 1024 1024" version="1.1" xmlns="http://www.w3.org/2000/svg" p-id="4033" xmlns:xlink="http://www.w3.org/1999/xlink" width="200" height="200"><defs><style type="text/css"></style></defs><path d="M726.95808 289.93536a119.808 119.808 0 0 0-119.68512 119.68512 119.82848 119.82848 0 0 0 119.68512 119.68512 119.82848 119.82848 0 0 0 119.68512-119.68512 119.82848 119.82848 0 0 0-119.68512-119.68512z m0 177.93024a58.24512 58.24512 0 1 1 0-116.46976 58.24512 58.24512 0 0 1 0 116.46976z" fill="#1296db" p-id="4034"></path><path d="M870.31808 143.38048h-696.32c-56.46336 0-102.4 45.93664-102.4 102.4v532.48c0 56.46336 45.93664 102.4 102.4 102.4h696.32c56.46336 0 102.4-45.93664 102.4-102.4v-532.48c0-56.46336-45.93664-102.4-102.4-102.4z m-737.28 634.88v-92.16c7.86432 0 15.72864-2.99008 21.72928-8.99072l163.84-163.84c7.84384-7.82336 10.15808-7.82336 18.00192 0l305.95072 305.95072H173.99808a40.96 40.96 0 0 1-40.96-40.96z m778.24 0a40.96 40.96 0 0 1-40.96 40.96h-141.29152c-0.34816-0.36864-0.45056-0.88064-0.8192-1.2288l-348.16-348.16c-31.8464-31.86688-73.03168-31.86688-104.87808 0l-142.1312 142.11072V245.78048a40.96 40.96 0 0 1 40.96-40.96h696.32a40.96 40.96 0 0 1 40.96 40.96v532.48z" fill="#1296db" p-id="4035"></path></svg>