<?xml version="1.0" standalone="no"?><!DOCTYPE svg PUBLIC "-//W3C//DTD SVG 1.1//EN" "http://www.w3.org/Graphics/SVG/1.1/DTD/svg11.dtd"><svg t="1500002972153" class="icon" style="" viewBox="0 0 1024 1024" version="1.1" xmlns="http://www.w3.org/2000/svg" p-id="3725" xmlns:xlink="http://www.w3.org/1999/xlink" width="128" height="128"><defs><style type="text/css"></style></defs><path d="M413.573192 166.151675l-12.641975 7.825985c-6.621987 4.213992-16.253968 2.407995-20.46796-4.81599-4.213992-6.621987-2.407995-16.253968 4.815991-20.46796l12.641975-7.825985c6.621987-4.213992 16.253968-2.407995 20.46796 4.81599 4.213992 7.223986 2.407995 16.253968-4.815991 20.46796" fill="#FFFFFF" p-id="3726"></path><path d="M1016.174015 504.475015c0 251.635509-204.077601 455.71311-455.71311 455.71311-251.635509 0-455.71311-204.077601-455.71311-455.71311C104.145797 252.839506 308.223398 48.761905 559.858907 48.761905c252.237507 0 456.315109 204.077601 456.315108 455.71311" fill="#F5E435" p-id="3727"></path><path d="M515.912992 55.985891c-21.671958 0-42.139918 1.805996-63.209876 4.213991 222.137566 30.70194 393.105232 220.933568 393.105232 451.499119s-170.967666 420.797178-393.105232 451.499118c20.46796 3.009994 41.537919 4.213992 63.209876 4.213992 251.635509 0 455.71311-204.077601 455.71311-455.71311 0-251.635509-204.077601-455.71311-455.71311-455.71311" fill="#E6C61F" p-id="3728"></path><path d="M346.751323 206.485597l-89.697825 60.199882c-12.039976 7.825985-27.691946 4.213992-34.915932-8.427983-7.223986-12.641975-3.611993-29.497942 7.825985-37.323928l89.697825-60.199882c12.039976-7.825985 27.691946-4.213992 34.915931 8.427984 7.223986 12.641975 3.611993 29.497942-7.825984 37.323927M413.573192 165.549677l-12.641975 7.825984c-6.621987 4.213992-16.253968 2.407995-20.46796-4.81599-4.213992-6.621987-2.407995-16.253968 4.815991-20.46796l12.641975-7.825985c6.621987-4.213992 16.253968-2.407995 20.46796 4.815991 4.213992 6.621987 1.805996 15.651969-4.815991 20.46796" fill="#FFFFFF" p-id="3729"></path><path d="M49.363904 404.54321c9.631981 0 17.457966-6.621987 20.46796-15.65197 14.447972-48.761905 37.925926-94.513815 68.025867-134.245737 11.437978-15.049971 0-36.119929-18.661964-34.915932h-0.601999c-6.019988 0.601999-12.039976 3.611993-15.651969 8.427983-33.109935 43.945914-58.393886 93.911817-74.045855 148.091711-4.815991 13.845973 5.417989 28.293945 20.46796 28.293945-0.601999 0-0.601999 0 0 0M952.36214 455.111111c-25.885949-220.33157-206.485597-395.513228-427.419165-415.379189-117.389771-10.23398-227.555556 22.273956-315.447384 84.279836-17.457966 12.641975-7.825985 40.333921 13.845973 39.129923h0.601999c4.213992 0 7.825985-1.805996 10.835978-3.611993 86.085832-60.199882 195.047619-90.299824 311.233393-73.443856 183.007643 27.089947 330.497354 172.171664 359.995296 355.179306 13.845973 85.483833 1.805996 167.355673-28.895943 238.993533-4.815991 11.437978 0 24.079953 11.437978 28.895944h0.601998c10.835979 4.213992 23.477954-0.601999 27.691946-10.835979 31.905938-72.841858 45.751911-155.917695 35.517931-243.207525M859.654321 765.140506l-1.203998-1.203998c-9.631981-7.825985-23.477954-6.019988-30.70194 3.611993-11.437978 15.651969-24.079953 30.70194-37.925926 44.547913-8.427984 9.029982-7.825985 23.477954 1.805997 31.303939h0.601999c8.427984 7.223986 21.069959 6.621987 28.895943-1.203998 15.049971-15.651969 29.497942-31.905938 42.139918-49.363904 6.019988-8.427984 4.213992-20.46796-3.611993-27.691945M716.9806 871.694297c-55.383892 36.721928-120.399765 60.801881-189.62963 68.025868-202.873604 21.671958-416.583186-131.837743-464.743092-330.497355-10.23398-42.139918-12.641975-83.075838-10.23398-122.80776 0.601999-12.039976-9.029982-22.875955-21.671958-22.875955-11.437978 0-21.069959 8.427984-21.671958 19.865961-1.805996 25.283951-1.805996 51.771899 1.203998 78.259847 22.875955 220.933568 201.067607 399.727219 422.001176 422.001176 114.379777 11.437978 221.535567-18.059965 308.825397-75.249853 10.835979-7.223986 13.243974-22.273956 4.81599-31.905938v-0.601999c-7.223986-8.427984-19.263962-10.23398-28.895943-4.213992" fill="#3A3A3A" p-id="3730"></path><path d="M725.408583 899.386243c-26.487948 0-48.159906-21.671958-48.159906-48.159906V499.659024c0-26.487948 21.671958-48.159906 48.159906-48.159906s48.159906 21.671958 48.159906 48.159906v351.567313c0 27.089947-21.671958 48.159906-48.159906 48.159906zM310.631393 899.386243c-26.487948 0-48.159906-21.671958-48.159906-48.159906V499.659024c0-26.487948 21.671958-48.159906 48.159906-48.159906s48.159906 21.671958 48.159906 48.159906v351.567313c0 27.089947-21.671958 48.159906-48.159906 48.159906z" fill="#8ED2EA" p-id="3731"></path><path d="M379.861258 455.71311l-116.185773 20.46796c-13.243974 2.407995-25.885949-6.621987-28.293945-19.865961-2.407995-13.243974 6.621987-25.885949 19.865961-28.293945l116.185774-20.46796c13.243974-2.407995 25.885949 6.621987 28.293944 19.865961 2.407995 13.845973-6.621987 26.487948-19.865961 28.293945zM766.344503 476.783069L650.15873 456.315109c-13.243974-2.407995-22.273956-15.049971-19.865961-28.293945 2.407995-13.243974 15.049971-22.273956 28.293945-19.865961l116.185773 20.46796c13.243974 2.407995 22.273956 15.049971 19.865961 28.293945-3.009994 13.243974-15.651969 21.671958-28.293945 19.865961z" fill="#5A5B5B" p-id="3732"></path><path d="M384.07525 973.432099H237.187537c-3.611993 0-6.621987-3.009994-6.621987-6.621987v-51.1699c0-3.611993 3.009994-6.621987 6.621987-6.621987h146.887713c3.611993 0 6.621987 3.009994 6.621987 6.621987v51.1699c0 3.611993-3.009994 6.621987-6.621987 6.621987z" fill="#8ED2EA" p-id="3733"></path><path d="M349.761317 924.068195H270.899471c-13.243974 0-24.681952-10.835979-24.681952-24.681952 0-13.243974 10.835979-24.681952 24.681952-24.681951h78.861846c13.243974 0 24.681952 10.835979 24.681952 24.681951s-10.835979 24.681952-24.681952 24.681952zM798.85244 973.432099h-146.887713c-3.611993 0-6.621987-3.009994-6.621987-6.621987v-51.1699c0-3.611993 3.009994-6.621987 6.621987-6.621987h146.887713c3.611993 0 6.621987 3.009994 6.621987 6.621987v51.1699c0 3.611993-3.009994 6.621987-6.621987 6.621987z" fill="#8ED2EA" p-id="3734"></path><path d="M764.538507 924.068195h-78.861846c-13.243974 0-24.681952-10.835979-24.681952-24.681952 0-13.243974 10.835979-24.681952 24.681952-24.681951H764.538507c13.243974 0 24.681952 10.835979 24.681952 24.681951s-10.835979 24.681952-24.681952 24.681952z" fill="#8ED2EA" p-id="3735"></path><path d="M513.504997 774.170488c-9.029982 0-16.253968-7.223986-16.253968-16.253968v-93.309818c0-9.029982 7.223986-16.253968 16.253968-16.253968 9.029982 0 16.253968 7.223986 16.253968 16.253968v93.309818c0 9.029982-7.223986 16.253968-16.253968 16.253968z" fill="#5A5B5B" p-id="3736"></path></svg>