<?xml version="1.0" standalone="no"?><!DOCTYPE svg PUBLIC "-//W3C//DTD SVG 1.1//EN" "http://www.w3.org/Graphics/SVG/1.1/DTD/svg11.dtd"><svg t="1512402235435" class="icon" style="" viewBox="0 0 1024 1024" version="1.1" xmlns="http://www.w3.org/2000/svg" p-id="1922" xmlns:xlink="http://www.w3.org/1999/xlink" width="200" height="200"><defs><style type="text/css"></style></defs><path d="M294.4 166.4h358.4v358.4H294.4z" fill="#E24F32" p-id="1923"></path><path d="M652.8 537.6H294.4c-7.68 0-12.8-5.12-12.8-12.8V166.4c0-7.68 5.12-12.8 12.8-12.8h358.4c7.68 0 12.8 5.12 12.8 12.8v358.4c0 7.68-5.12 12.8-12.8 12.8z m-345.6-25.6h332.8V179.2H307.2v332.8z" fill="#231C1C" p-id="1924"></path><path d="M960 473.6H652.8V115.2h307.2l-115.2 179.2z" fill="#E24F32" p-id="1925"></path><path d="M960 486.4H652.8c-7.68 0-12.8-5.12-12.8-12.8V115.2c0-7.68 5.12-12.8 12.8-12.8h307.2c5.12 0 8.96 2.56 11.52 6.4 2.56 3.84 2.56 8.96 0 12.8L860.16 294.4l111.36 172.8c2.56 3.84 2.56 8.96 0 12.8-2.56 3.84-6.4 6.4-11.52 6.4z m-294.4-25.6h271.36l-102.4-160c-2.56-3.84-2.56-10.24 0-14.08l102.4-160H665.6V460.8z" fill="#231C1C" p-id="1926"></path><path d="M204.8 115.2h89.6v819.2h-89.6z" fill="#FDE8C2" p-id="1927"></path><path d="M294.4 947.2h-89.6c-7.68 0-12.8-5.12-12.8-12.8V115.2c0-7.68 5.12-12.8 12.8-12.8h89.6c7.68 0 12.8 5.12 12.8 12.8v819.2c0 7.68-5.12 12.8-12.8 12.8z m-76.8-25.6h64V128h-64v793.6z" fill="#231C1C" p-id="1928"></path></svg>