<?xml version="1.0" standalone="no"?><!DOCTYPE svg PUBLIC "-//W3C//DTD SVG 1.1//EN" "http://www.w3.org/Graphics/SVG/1.1/DTD/svg11.dtd"><svg t="1500349489752" class="icon" style="" viewBox="0 0 1024 1024" version="1.1" xmlns="http://www.w3.org/2000/svg" p-id="2373" xmlns:xlink="http://www.w3.org/1999/xlink" width="200" height="200"><defs><style type="text/css"></style></defs><path d="M872 125q28 0 47.5 19.5t19.5 47.5v51q0 28-19.5 47.5t-47.5 19.5h-742q-28 0-47.5-19.5t-19.5-47.5v-51q0-28 19.5-47.5t47.5-19.5h742zM872 438q28 0 47.5 19.5t19.5 47.5v51q0 28-19.5 47.5t-47.5 19.5h-742q-28 0-47.5-19.5t-19.5-47.5v-51q0-28 19.5-47.5t47.5-19.5h742zM872 751q28 0 47.5 19.5t19.5 47.5v51q0 28-19.5 47.5t-47.5 19.5h-742q-28 0-47.5-19.5t-19.5-47.5v-51q0-28 19.5-47.5t47.5-19.5h742z" p-id="2374" fill="#ffffff"></path></svg>