<?xml version="1.0" standalone="no"?><!DOCTYPE svg PUBLIC "-//W3C//DTD SVG 1.1//EN" "http://www.w3.org/Graphics/SVG/1.1/DTD/svg11.dtd"><svg t="1500182354162" class="icon" style="" viewBox="0 0 1024 1024" version="1.1" xmlns="http://www.w3.org/2000/svg" p-id="4088" xmlns:xlink="http://www.w3.org/1999/xlink" width="128" height="128"><defs><style type="text/css"></style></defs><path d="M512 1024C229.226667 1024 0 794.773333 0 512S229.226667 0 512 0s512 229.226667 512 512-229.226667 512-512 512z m0-981.333333C253.205333 42.666667 42.666667 253.205333 42.666667 512s210.538667 469.333333 469.333333 469.333333 469.333333-210.538667 469.333333-469.333333S770.794667 42.666667 512 42.666667z m-57.941333 626.304a21.290667 21.290667 0 0 1-30.826667 0l-125.76-131.285334a21.312 21.312 0 1 1 30.826667-29.504l110.357333 115.221334 257.045333-268.373334a21.333333 21.333333 0 1 1 30.826667 29.482667L454.058667 668.970667z" fill="" p-id="4089"></path></svg>