<?xml version="1.0" standalone="no"?><!DOCTYPE svg PUBLIC "-//W3C//DTD SVG 1.1//EN" "http://www.w3.org/Graphics/SVG/1.1/DTD/svg11.dtd"><svg t="1512402409321" class="icon" style="" viewBox="0 0 1024 1024" version="1.1" xmlns="http://www.w3.org/2000/svg" p-id="1050" xmlns:xlink="http://www.w3.org/1999/xlink" width="200" height="200"><defs><style type="text/css"></style></defs><path d="M435.309737 826.425085c-10.298692 3.999492-20.897347 5.799264-31.496001 6.2992l36.895315 50.993526c5.699276 7.199086 12.298439 12.198451 20.397411 8.89887 8.098972-2.999619 10.298692-9.498794 8.998857-20.297423l-7.399061-62.592053c-8.098972 6.899124-16.997842 12.698388-27.396521 16.69788z" fill="#F79633" p-id="1051"></path><path d="M428.810562 809.52723c21.697245-8.498921 37.795201-25.396776 46.294122-44.594338 7.79901-17.497778 8.798883-36.495366 2.799645-51.993399L363.018915 417.277031l-150.480894 58.492574 111.785807 287.663477c8.098972 20.79736 23.696991 36.195405 42.694579 44.594339 18.897601 8.498921 40.994795 9.498794 61.792155 1.499809zM232.935431 57.322732c-17.997715-46.194135-69.991114-69.191215-116.285236-51.1935s-69.191215 69.991114-51.193501 116.285236l125.084119 321.959123L358.01955 379.281855l-125.084119-321.959123z m10.798629 276.264925c-11.49854 4.399441-24.196928-0.999873-28.59637-11.89849L128.648671 98.917451c-4.299454-10.998604 1.599797-23.597004 13.198325-27.996445 11.398553-4.399441 24.196928 0.799898 28.596369 11.798502l86.489019 222.771716c4.299454 10.998604-1.699784 23.497017-13.198324 28.096433z" fill="#626262" p-id="1052"></path><path d="M812.261878 607.752848c11.198578 0 20.197436-8.998857 20.197436-20.197436 0-11.098591-8.998857-20.197436-20.197436-20.197435H699.676172c-11.098591 0-20.197436 8.998857-20.197436 20.197435 0 11.298566 8.998857 20.197436 20.197436 20.197436h112.585706z m0 229.870815H618.986417c-11.198578 0-20.197436 8.998857-20.197436 20.197436s8.998857 20.197436 20.197436 20.197435h193.175474c11.198578 0 20.197436-8.998857 20.197435-20.197435s-8.998857-20.197436-20.097448-20.197436zM554.994541 722.738249c0 11.198578 8.998857 20.197436 20.197436 20.197436h237.069901c11.198578 0 20.197436-8.998857 20.197436-20.197436s-8.998857-20.297423-20.197436-20.297423H575.191977c-11.098591 0.099987-20.197436 9.198832-20.197436 20.297423z m318.459568-299.661954H429.410486l19.597512 50.293615h424.546098c18.597639 0.099987 33.995684 15.59802 33.995684 34.195658v432.045146c0 18.497651-15.398045 33.995684-33.995684 33.995684H395.314815c-13.898235 0-25.196801 11.298566-25.196801 25.196801 0 13.998223 11.198578 25.196801 25.196801 25.196801h478.139294c46.594084 0 84.389286-37.895189 84.389285-84.389286V507.465581c-0.099987-46.694072-37.895189-84.389286-84.389285-84.389286z" fill="#54A8B9" p-id="1053"></path></svg>