<?xml version="1.0" standalone="no"?><!DOCTYPE svg PUBLIC "-//W3C//DTD SVG 1.1//EN" "http://www.w3.org/Graphics/SVG/1.1/DTD/svg11.dtd"><svg t="1512402487671" class="icon" style="" viewBox="0 0 1024 1024" version="1.1" xmlns="http://www.w3.org/2000/svg" p-id="1166" xmlns:xlink="http://www.w3.org/1999/xlink" width="200" height="200"><defs><style type="text/css"></style></defs><path d="M624.557105 1.198478c19.575149 9.887448 40.14903 18.176924 58.725446 29.86209C767.775285 84.193114 851.568907 138.324393 935.662148 192.156052c37.35258 23.96957 46.441042 63.719107 22.671218 101.171559C810.820638 525.932312 663.208037 758.43714 515.994928 991.241588c-10.28694 16.17946-23.570077 26.965766-41.347508 32.758412h-10.886179c-24.369063-6.691505-36.353848-24.169316-43.944212-47.240027-17.677558-53.332293-36.953087-106.16522-55.030137-159.497513-4.494294-13.283137-11.385546-18.876036-25.967034-17.377938-60.023798 6.292012-120.247342 11.785039-180.371014 17.377938-19.874768 1.797718-37.35258-3.595435-48.338632-21.272994-10.88618-17.577685-8.688969-35.954355 1.897591-52.832926C153.455184 676.940603 195.401931 611.124159 237.248805 545.207842c0.699112-1.098605 1.597971-2.197211 2.097338-2.996197 19.575149 8.988589 38.451185 17.677558 59.124939 27.165513-37.35258 59.025066-74.805033 118.150005-113.955331 180.071394 18.176924-1.498098 33.657271-2.696577 49.037746-4.194675 32.558666-3.195943 65.117332-6.391885 97.576124-9.887448 46.840534-4.99366 78.799961 15.080854 94.280308 59.824052 15.779967 45.342436 31.559934 90.784746 48.738125 140.022237 145.315517-229.009266 288.93319-455.521701 433.849215-683.731981-96.777138-61.921389-192.555545-123.243538-289.632303-185.364673-12.284405 18.776163-24.069443 36.853214-35.954354 54.830391-16.678826-14.281869-32.758412-28.164245-49.337365-42.246367 20.773627-31.959427 35.355116-70.510485 80.497805-77.50161h10.986053z" fill="#626264" p-id="1167"></path><path d="M380.466985 60.72291c137.325661 0 246.986443 109.061543 247.286063 245.987711 0.199746 137.125914-110.359895 247.785429-247.585682 247.585683-136.626548-0.199746-246.087584-111.15888-245.987711-249.283527 0-134.429338 110.759387-244.189993 246.28733-244.289867z m55.429631 300.917976c28.863357 0 56.02887 0.099873 83.194382 0 19.275529-0.099873 29.462596-9.687701 30.261582-28.963231 0.599239-13.582756 0.199746-27.265386 0.199746-40.848142 0-31.160441-8.08973-39.250171-39.54979-39.25017h-72.008583c-1.198478-2.297084-1.597971-2.596703-1.597971-2.996197-0.199746-26.76602-0.099873-53.532039-0.499366-80.397932-0.29962-19.075783-10.486687-29.662343-29.362723-30.161709-17.278065-0.399493-34.55613-0.499366-51.734322 0-16.978445 0.499366-26.865893 9.887448-28.164245 26.965766-0.898859 12.683897-0.499366 25.367795-0.599239 38.151566-0.099873 15.779967 0 31.559934 0 48.338632-28.96323 0-56.128743-0.199746-83.394129 0.099874-18.876036 0.199746-29.56247 10.88618-29.762215 29.562469-0.199746 15.480347-0.099873 30.860821 0 46.341169 0.099873 23.869697 9.088462 33.058032 32.758412 33.157905 26.266654 0.099873 52.433434 0 79.199454 0 0.499366 4.294548 1.198478 7.390617 1.198478 10.486686 0.099873 24.069443-0.399493 48.138886 0.199746 72.20833 0.499366 21.572613 10.986053 31.260314 32.458793 31.360187 14.581488 0.099873 29.063103 0.099873 43.644592 0 23.869697-0.099873 33.657271-10.087194 33.657271-34.25651 0-25.767288-0.099873-51.634448-0.099873-79.798693z" fill="#F79633" p-id="1168"></path></svg>