<?xml version="1.0" standalone="no"?><!DOCTYPE svg PUBLIC "-//W3C//DTD SVG 1.1//EN" "http://www.w3.org/Graphics/SVG/1.1/DTD/svg11.dtd"><svg t="1512402370317" class="icon" style="" viewBox="0 0 1024 1024" version="1.1" xmlns="http://www.w3.org/2000/svg" p-id="935" xmlns:xlink="http://www.w3.org/1999/xlink" width="200" height="200"><defs><style type="text/css"></style></defs><path d="M442.8 746.8L511.4 923l67.9-174.2L543 625.5c3.3-3 5.4-7.2 5.4-12v-28.3c0-9-7.4-16.4-16.4-16.4h-42.8c-9 0-16.4 7.4-16.4 16.4v28.3c0 5.5 2.9 10.1 7.1 13.1l-37.1 120.2z" fill="#F79633" p-id="936"></path><path d="M688.6 566.6l-177.3 454.6-177-454.7C155 636.8 66.8 810.7 30.8 1024h961.1c-36.1-213.2-124.1-387-303.3-457.4zM513.3 0C368.8 0.1 251.7 117.2 251.7 261.6c0 144.5 117.2 261.6 261.7 261.6S775 406.1 775 261.6C774.9 117.2 657.8 0.1 513.3 0z m0 478.5c-115.7-0.2-209.8-90.7-216.2-204.7 49.6-43.5 84.5-100.6 96.5-165 60.5 67.7 152.9 111 256.5 111 25.5 0 50.2-2.8 74.1-7.8 3.7 16 5.9 32.5 6 49.6-0.3 119.7-97.2 216.7-216.9 216.9z" fill="#626262" p-id="937"></path></svg>