<?xml version="1.0" standalone="no"?><!DOCTYPE svg PUBLIC "-//W3C//DTD SVG 1.1//EN" "http://www.w3.org/Graphics/SVG/1.1/DTD/svg11.dtd"><svg t="1500181359184" class="icon" style="" viewBox="0 0 1024 1024" version="1.1" xmlns="http://www.w3.org/2000/svg" p-id="3059" xmlns:xlink="http://www.w3.org/1999/xlink" width="128" height="128"><defs><style type="text/css"></style></defs><path d="M570.61 722.765c0 6.128-2.101 12.278-6.281 16.939-4.18 4.684-9.696 7.025-15.167 7.025h-74.302c-5.493 0-10.965-2.341-15.167-7.025-4.179-4.661-6.259-10.81-6.259-16.939v-39.941c0-6.128 2.079-12.278 6.259-16.939 4.202-4.684 9.674-7.025 15.167-7.025h74.302c5.493 0 10.987 2.341 15.167 7.025 4.18 4.661 6.281 10.81 6.281 16.939v39.941zM511.999 61.024c-247.532 0-448.226 200.665-448.226 448.208s200.695 448.208 448.226 448.208c247.553 0 448.226-200.666 448.226-448.208 0-247.544-200.673-448.208-448.226-448.208zM511.999 854.908c-190.912 0-345.669-154.772-345.669-345.676 0-190.926 154.757-345.676 345.669-345.676 190.934 0 345.713 154.751 345.713 345.676 0 190.904-154.778 345.676-345.713 345.676zM564.307 591.739c-4.202 3.129-9.717 4.705-15.21 4.683l-73.866-0.263c-5.449-0.021-10.899-1.597-15.058-4.705-4.158-3.13-6.237-7.2-6.26-11.293l-0.481-112.817v-177.137c0-4.093 2.079-8.185 6.259-11.337 4.18-3.129 9.674-4.684 15.146-4.684h74.238c5.472 0 10.943 1.554 15.123 4.684 4.18 3.13 6.281 7.244 6.281 11.337v175.847l0.131 114.306c0 4.114-2.1 8.25-6.303 11.38z" p-id="3060" fill="#e6e6e6"></path></svg>