<?xml version="1.0" standalone="no"?><!DOCTYPE svg PUBLIC "-//W3C//DTD SVG 1.1//EN" "http://www.w3.org/Graphics/SVG/1.1/DTD/svg11.dtd"><svg t="1500371250776" class="icon" style="" viewBox="0 0 1024 1024" version="1.1" xmlns="http://www.w3.org/2000/svg" p-id="920" xmlns:xlink="http://www.w3.org/1999/xlink" width="200" height="200"><defs><style type="text/css"></style></defs><path d="M112.5 650l542.4-542.4c10.3-10.3 24.1-16 38.9-16s28.6 5.7 38.9 16l183.8 183.8c10.3 10.3 16 24.1 16 38.9s-5.7 28.6-16 38.9L374.1 911.6 112.5 650z" fill="#FFCC72" p-id="921"></path><path d="M693.7 116.6c8.1 0 15.6 3.1 21.2 8.7l183.8 183.8c5.6 5.6 8.7 13.1 8.7 21.2s-3.1 15.6-8.7 21.2L374.1 876.3 147.8 650l524.7-524.7c5.6-5.6 13.2-8.7 21.2-8.7m0-50c-20.5 0-41 7.8-56.6 23.3l-560 560 297 297 560-560c31.1-31.1 31.1-82 0-113.1L750.3 90c-15.6-15.6-36.1-23.4-56.6-23.4z" fill="#3A3644" p-id="922"></path><path d="M557.3 205.2l97.6-97.6c10.3-10.3 24.1-16 38.9-16s28.6 5.7 38.9 16l183.8 183.8c10.3 10.3 16 24.1 16 38.9 0 14.8-5.7 28.6-16 38.9l-97.6 97.6-261.6-261.6z" fill="#F95360" p-id="923"></path><path d="M693.7 116.6c8.1 0 15.6 3.1 21.2 8.7l183.8 183.8c5.6 5.6 8.7 13.1 8.7 21.2s-3.1 15.6-8.7 21.2l-79.9 79.9-226.2-226.2 79.9-79.9c5.6-5.6 13.2-8.7 21.2-8.7m0-50c-20.5 0-41 7.8-56.6 23.3L521.9 205.2l297 297L934.1 387c31.1-31.1 31.1-82 0-113.1L750.3 90c-15.6-15.6-36.1-23.4-56.6-23.4z" fill="#3A3644" p-id="924"></path><path d="M582 265.3l35.4 35.4-409.2 409.2-35.4-35.4L582 265.3zM243.5 745.2l35.4 35.4 409.2-409.2-35.4-35.4-409.2 409.2z m479.9-338.4L314.2 815.9l35.4 35.4 409.2-409.2-35.4-35.3z" fill="#ED9D29" p-id="925"></path><path d="M621.064 176.827L847.336 403.1l-28.284 28.284L592.78 205.111z" fill="#ED3248" p-id="926"></path><path d="M557.202 240.573l226.272 226.272-28.284 28.284-226.272-226.272z" fill="#A87729" p-id="927"></path><path d="M101.8 660.7l10.9-10.9 261.2 261.1-11 11-270.5 9.3z" fill="#E5E5E5" p-id="928"></path><path d="M125.5 697.9l200.2 200.2-207.4 7.1 7.2-207.3m-12.8-83.5L77.1 650 66.5 957.1l307.1-10.6 35.6-35.6-296.5-296.5z" fill="#3A3644" p-id="929"></path><path d="M95.5 875.8l52.8 52.8-55.3 2.5z" fill="#E5E5E5" p-id="930"></path><path d="M73.1 818.1l-6.3 139.3 139.3-6.4-133-132.9z" fill="#3A3644" p-id="931"></path><path d="M326.2 898.4l-168.4 4.3-15-15 117.8-54.9z" fill="#BFBFBF" p-id="932"></path></svg>