<?xml version="1.0" standalone="no"?><!DOCTYPE svg PUBLIC "-//W3C//DTD SVG 1.1//EN" "http://www.w3.org/Graphics/SVG/1.1/DTD/svg11.dtd"><svg t="1500374245989" class="icon" style="" viewBox="0 0 1024 1024" version="1.1" xmlns="http://www.w3.org/2000/svg" p-id="1783" xmlns:xlink="http://www.w3.org/1999/xlink" width="200" height="200"><defs><style type="text/css"></style></defs><path d="M512.017287 512.060244m-511.939756 0a511.939756 511.939756 0 1 0 1023.879512 0 511.939756 511.939756 0 1 0-1023.879512 0Z" fill="#F8E294" p-id="1784"></path><path d="M65.34985 592.325085a511.939756 511.939756 0 0 0 21.026097 144.988652A481.771877 481.771877 0 1 0 819.18114 141.086757 511.939756 511.939756 0 0 0 65.34985 592.325085z" fill="#F6D65D" p-id="1785"></path><path d="M427.181556 967.13812a602.07772 602.07772 0 0 1-171.134147-23.768632 489.268138 489.268138 0 0 0 748.529057-417.779407 603.357569 603.357569 0 0 1-577.39491 441.548039z" fill="#F2C13A" p-id="1786"></path><path d="M939.852654 230.85905A511.939756 511.939756 0 1 0 1023.957043 512.060244a511.939756 511.939756 0 0 0-84.104389-281.201194zM512.017287 993.832122A481.589042 481.589042 0 1 1 993.789164 512.060244 482.137548 482.137548 0 0 1 512.017287 993.832122z" fill="#D98613" p-id="1787"></path><path d="M285.483945 564.899741m-107.87302 0a107.87302 107.87302 0 1 0 215.74604 0 107.87302 107.87302 0 1 0-215.74604 0Z" fill="#F2921D" p-id="1788"></path><path d="M716.610354 564.899741m-107.87302 0a107.87302 107.87302 0 1 0 215.74604 0 107.87302 107.87302 0 1 0-215.74604 0Z" fill="#F2921D" p-id="1789"></path><path d="M340.700305 443.67972m-55.21636 0a55.216359 55.216359 0 1 0 110.432719 0 55.216359 55.216359 0 1 0-110.432719 0Z" fill="#582A14" p-id="1790"></path><path d="M683.33427 443.67972m-55.21636 0a55.216359 55.216359 0 1 0 110.432719 0 55.216359 55.216359 0 1 0-110.432719 0Z" fill="#582A14" p-id="1791"></path><path d="M991.04663 243.840379C991.04663 310.941055 950.822792 365.791743 882.076596 365.791743s-109.701376-54.850688-109.701376-121.402857 109.701376-166.563256 109.701376-166.563256 108.970034 98.914074 108.970034 166.014749z" fill="#63C4DA" p-id="1792"></path><path d="M882.076596 387.732018C804.55429 387.732018 749.703602 329.224617 749.703602 243.840379c0-74.779771 104.399143-172.413996 116.283459-182.835627l15.175357-13.895507 15.175357 13.895507c11.884316 10.787302 116.283459 108.421527 116.283459 182.835627 0.914178 85.384238-53.022332 143.891638-130.544638 143.891639z m0-279.190002c-38.395482 38.578317-86.481252 98.914074-86.481251 135.298363 0 49.182784 26.694002 98.731239 86.481251 98.731239S969.106355 292.657492 969.106355 243.840379c0-36.567125-48.817112-97.451389-87.029759-135.298363z" fill="#3DAFCC" p-id="1793"></path><path d="M384.032348 701.66079l244.451234 0 0 60.152921-244.451234 0 0-60.152921Z" fill="#C44F1C" p-id="1794"></path></svg>