<?xml version="1.0" standalone="no"?><!DOCTYPE svg PUBLIC "-//W3C//DTD SVG 1.1//EN" "http://www.w3.org/Graphics/SVG/1.1/DTD/svg11.dtd"><svg t="1506235730474" class="icon" style="" viewBox="0 0 1024 1024" version="1.1" xmlns="http://www.w3.org/2000/svg" p-id="1734" xmlns:xlink="http://www.w3.org/1999/xlink" width="200" height="200"><defs><style type="text/css"></style></defs><path d="M617.186752 414.680565c-22.990706-16.150894-44.057852-36.665948-61.98771-60.811228-7.214446-9.714198-5.187916-23.435447 4.526281-30.649893 9.716389-7.210064 23.437638-5.185725 30.649893 4.526281 12.441797 16.753376 26.594643 31.379444 41.871391 43.540813 1.757056-7.626324 2.716645-14.650167 2.67721-21.049619-0.107351-17.340522-6.563766-36.446864-52.661292-58.622576-20.490954-9.867557-36.924467-14.663312-50.251365-14.663312-20.852443 0-36.584887 12.989508-54.350433 41.126504-0.315481 0.556474-0.657253 1.09104-1.01436 1.61027-11.182062 17.993393-23.216363 41.945879-37.864339 72.440222-29.510655 61.275687-38.819546 99.556286-30.189816 124.148498 5.615131 16.001917 20.125083 29.157929 45.665931 41.402551 17.507026 8.393119 32.067368 12.472469 44.511356 12.472469 4.49561 0 8.899204-0.626581 13.2546-1.868789 2.957638-1.527018 7.871699-3.9238 14.573488-6.699598 21.126299-13.504356 41.943688-43.648164 66.671733-95.106684 9.153342-19.016517 17.303278-36.247497 23.917432-51.795909z" fill="#E85512" p-id="1735"></path><path d="M632.603714 206.714797a83.639812 83.639812 0 0 0 25.323954 3.95009c36.4381 0 68.345537-23.402585 79.39834-58.232606 13.907471-43.81905-10.437176-90.788532-54.269371-104.698195A83.120582 83.120582 0 0 0 657.894805 43.816859c-36.545451 0-68.514232 23.371913-79.55608 58.158117-6.747796 21.25994-4.813282 43.860676 5.444245 63.639607 10.250954 19.765785 27.589285 34.361181 48.820744 41.100214zM434.685152 735.665349l166.133812-52.00623v-21.273086l-166.133812 52.006231z" fill="#FFEBD4" p-id="1736"></path><path d="M918.670843 594.421703c-6.533094-10.178656-20.085648-13.140676-30.270877-6.605391l-46.28813 29.70783c-87.861566-69.557073-171.098263-80.160753-226.515636-76.396885-4.690595 0.319863-9.245357 0.755841-13.688387 1.268498 10.586153-16.709559 20.712229-35.846573 30.842688-56.926863 8.432555-17.513599 16.093932-33.706119 22.642362-48.809791 19.321044 8.818143 39.424219 14.726846 59.739906 17.340522 8.241951 1.058177 16.420368 1.58617 24.524296 1.586171 42.375285 0 82.550963-14.420128 117.376602-42.359949 9.438151-7.571553 10.952024-21.360719 3.37828-30.79887-7.571553-9.435961-21.358528-10.947642-30.79887-3.37828-31.975353 25.650389-69.624989 36.536688-108.889277 31.491177-16.871682-2.171125-33.633821-7.260454-49.773761-14.926213 5.04113-16.39846 7.87608-31.478032 7.786255-45.648404-0.339581-54.446829-44.382097-81.911237-77.474779-97.829902-26.544253-12.783569-49.19757-18.99899-69.254737-18.99899-34.952709 0-60.127685 18.508241-81.497167 47.188566-80.666838-28.207103-174.969482 3.137287-240.072572 81.681199-7.720531 9.315464-6.430124 23.128729 2.88534 30.849259a21.820796 21.820796 0 0 0 13.971006 5.04113 21.864613 21.864613 0 0 0 16.880445-7.92647c50.487976-60.914198 121.081318-87.6381 182.321951-71.208969-9.179632 16.871682-18.032828 35.290098-27.203697 54.378913-35.899153 74.53905-45.183945 120.213744-32.049842 157.648678a94.041934 94.041934 0 0 0 3.37828 8.248524c-47.127223 39.246761-131.205203 58.052957-166.186393 34.398425-24.068601-16.275772-13.504356-52.91543-0.405306-80.789525a21.90843 21.90843 0 0 0-28.765768-29.322242l-60.434403 27.00214c-11.04623 4.935969-16.001917 17.892614-11.063757 28.938844 4.933778 11.04623 17.886042 15.999726 28.938845 11.065948l15.224168-6.800376c-8.456654 49.140608 14.573487 74.444844 31.960017 86.205288 17.480736 11.819598 41.163748 17.861943 68.282002 17.861943 16.052306 0 33.311767-2.118545 51.197809-6.408216 37.312246-8.949593 71.997672-25.862901 98.289979-47.567582 10.185229 8.579341 22.635789 16.376551 37.651827 23.57347 23.549371 11.289414 44.307608 16.777475 63.453385 16.777476 18.431562 0 34.685426-4.872435 49.442944-13.839555 42.272315-16.179375 155.468789-43.510141 278.094651 61.113564a21.888712 21.888712 0 0 0 14.225143 5.242687 21.849277 21.849277 0 0 0 11.828362-3.470295l59.709234-38.320034c10.18742-6.541857 13.142867-20.092221 6.607582-30.27745z m-392.077638-32.838545c-6.701789 2.775798-11.615849 5.170389-14.573487 6.699598a47.946598 47.946598 0 0 1-13.2546 1.868789c-12.446179 0-27.006521-4.07935-44.511357-12.472469-25.540847-12.244621-40.0508-25.400633-45.66593-41.402551-8.62973-24.592212 0.681352-62.872811 30.189816-124.148498 14.650167-30.494343 26.682276-54.446829 37.864338-72.440222 0.357107-0.51923 0.698879-1.053795 1.014361-1.61027 17.765546-28.136996 33.50018-41.126504 54.350432-41.126504 13.326898 0 29.760411 4.795755 50.251365 14.663312 46.099718 22.175712 52.553941 41.282054 52.661292 58.622576 0.039435 6.399452-0.917963 13.423295-2.67721 21.049619-15.276748-12.159178-29.427403-26.785246-41.871391-43.540813-7.212255-9.714198-20.933504-11.736346-30.649893-4.526281-9.714198 7.214446-11.740727 20.937886-4.526281 30.649893 17.93205 24.14528 38.999196 44.660334 61.987711 60.811228-6.614155 15.548412-14.764091 32.779392-23.919624 51.793718-24.723663 51.46071-45.543243 81.604519-66.669542 95.108875zM619.346923 248.478836a127.37561 127.37561 0 0 0 38.578554 6.00291c55.616739 0 104.308224-35.68445 121.162379-88.792675 21.216123-66.849191-15.916474-138.498519-82.776619-159.716833A126.812563 126.812563 0 0 0 657.894805 0c-55.724091 0-104.47911 35.651588-121.32012 88.718186-10.290389 32.422285-7.339324 66.893008 8.309868 97.069679 15.636046 30.14819 42.081712 52.415918 74.46237 62.690971zM578.338725 101.974976C589.378383 67.188772 621.349354 43.816859 657.894805 43.816859c8.504852 0 16.97246 1.318887 25.164023 3.917227 43.832195 13.911853 68.176842 60.879144 54.269371 104.698195-11.052803 34.830021-42.96024 58.232606-79.39834 58.232606-8.546478 0-17.066667-1.327651-25.323954-3.95009-21.231459-6.739033-38.56979-21.334429-48.820745-41.102405-10.261908-19.77893-12.194232-42.377475-5.446435-63.637416z" fill="" p-id="1737"></path><path d="M732.269542 914.457852h-87.633718V632.568661a21.901857 21.901857 0 0 0-28.454669-20.907215l-209.950671 65.725289a21.90843 21.90843 0 0 0-15.364382 20.907215V1002.09157c0 12.100026 9.808404 21.90843 21.908429 21.90843h109.542149c12.100026 0 21.90843-9.808404 21.908429-21.90843 0-12.097835-9.808404-21.90843-21.908429-21.908429h-87.633719v-198.604296l166.133813-52.008421V936.366282c0 12.100026 9.808404 21.90843 21.908429 21.908429h109.542148c12.100026 0 21.90843-9.808404 21.90843-21.908429 0.002191-12.097835-9.806213-21.90843-21.906239-21.90843z m-131.450578-230.798733l-166.133812 52.00623v-21.273085l166.133812-52.006231v21.273086z" fill="" p-id="1738"></path></svg>