<?xml version="1.0" standalone="no"?><!DOCTYPE svg PUBLIC "-//W3C//DTD SVG 1.1//EN" "http://www.w3.org/Graphics/SVG/1.1/DTD/svg11.dtd"><svg t="1506320621680" class="icon" style="" viewBox="0 0 1024 1024" version="1.1" xmlns="http://www.w3.org/2000/svg" p-id="1617" xmlns:xlink="http://www.w3.org/1999/xlink" width="200" height="200"><defs><style type="text/css"></style></defs><path d="M546.467024 511.995124l99.414825 99.414824c89.689355-82.077694 204.293369-132.387311 327.23315-143.643889-9.666956-101.555452-52.250321-193.651184-116.947001-265.471909L546.467024 511.995124zM477.506157 511.995124l-99.39532-99.39532c-89.684479 82.072818-204.286054 132.377558-327.225836 143.631699 9.664517 101.550576 52.238131 193.641432 116.925058 265.459719L477.506157 511.995124zM645.913544 680.40251c-73.481053 80.995191-118.724355 184.09638-129.368978 294.77266 117.176179-1.136142 224.078323-45.977162 305.149094-118.992543l-175.780116-175.780117zM412.590052 378.118151l99.39532 99.39532L821.686346 167.814935c-71.820726-64.682051-163.909144-107.255664-265.457282-116.92262-11.256579 122.937343-61.561318 237.541357-143.639012 327.225836zM611.400196 645.889163l-99.414824-99.414825L202.289273 856.172875c71.823164 64.694241 163.918896 107.272731 265.474348 116.93481 11.259017-122.934905 61.561318-237.534043 143.636575-327.218522zM378.079142 343.607242c73.481053-81.000067 118.726793-184.103694 129.371416-294.779974-117.178617 1.131265-224.083199 45.974724-305.15397 118.997419l175.782554 175.782555zM167.814935 202.303902c-73.017819 81.070771-117.858839 187.972915-118.997419 305.146656 110.678717-10.639746 213.782345-55.883049 294.779974-129.364102L167.814935 202.303902zM856.175313 821.703412c73.027571-81.070771 117.873468-187.977791 119.007171-305.158846-110.678717 10.642184-213.787221 55.890363-294.787288 129.376292l175.780117 175.782554z" fill="#FFAC52" p-id="1618"></path><path d="M511.98781 0.007314C229.676136 0.007314 0 229.690765 0 512.007314c0 282.311673 229.676136 511.98781 511.98781 511.98781 282.326302 0 512.014628-229.676136 512.014628-511.98781C1024 229.690765 794.311673 0.007314 511.98781 0.007314zM48.819954 507.452996c1.136142-117.176179 45.977162-224.075885 118.997419-305.146656l175.782555 175.782554c-80.997629 73.478614-184.101256 118.721917-294.779974 129.364102z m458.630604-458.625728c-10.644622 110.676279-55.890363 213.779907-129.371416 294.779974L202.296588 167.824687c81.070771-73.022695 187.975353-117.866154 305.15397-118.997419z m467.731926 467.717298c-1.133703 117.181055-45.977162 224.085637-119.007171 305.158846l-175.782555-175.780116c81.002505-73.488367 184.111008-118.734107 294.789726-129.37873z m-329.300635 94.865382L546.467024 511.995124 856.167998 202.29415c64.696679 71.820726 107.280045 163.916458 116.947001 265.471909-122.939782 11.256579-237.543795 61.563757-327.23315 143.643889z m-267.771012-198.810144L477.506157 511.995124 167.810059 821.691222c-64.686927-71.820726-107.26054-163.911582-116.925058-265.459719 122.939782-11.25414 237.541357-61.55888 327.225836-143.631699z m133.874535 64.916105l-99.39532-99.39532c82.075256-89.686917 132.379996-204.288492 143.639012-327.225836 101.548138 9.666956 193.636556 52.240569 265.457282 116.92262L511.985372 477.515909z m0 68.958429l99.414824 99.414825c-82.075256 89.684479-132.379996 204.283616-143.636575 327.218522-101.555452-9.664517-193.653622-52.243007-265.474348-116.93481l309.696099-309.698537z m133.928172 133.928172l175.780116 175.780117c-81.070771 73.015381-187.972915 117.853963-305.149094 118.992543 10.644622-110.676279 55.887925-213.777469 129.368978-294.77266z" fill="" p-id="1619"></path></svg>