<?xml version="1.0" standalone="no"?><!DOCTYPE svg PUBLIC "-//W3C//DTD SVG 1.1//EN" "http://www.w3.org/Graphics/SVG/1.1/DTD/svg11.dtd"><svg t="1506235768148" class="icon" style="" viewBox="0 0 1024 1024" version="1.1" xmlns="http://www.w3.org/2000/svg" p-id="2208" xmlns:xlink="http://www.w3.org/1999/xlink" width="200" height="200"><defs><style type="text/css"></style></defs><path d="M972.662544 876.258502c0-38.924059-31.66751-70.589002-70.589002-70.589002-38.924059 0-70.589002 31.664943-70.589002 70.589002s31.664943 70.589002 70.589002 70.589002c38.921492 0 70.589002-31.664943 70.589002-70.589002z" fill="#6ECCAE" p-id="2209"></path><path d="M502.680968 371.86543h0.053905c14.176838 0.028236 25.645626 11.545794 25.61739 25.720065-0.061605 30.212093 4.61267 59.194654 13.424745 85.579539 15.411504-22.585914 25.910014-42.029975 29.583209-59.06631 4.281544-19.862462 1.750607-43.351915-45.346375-80.427825-26.387452-20.79167-47.846509-30.894881-65.614403-30.894881-16.502425 0-32.930411 8.978921-51.180876 25.447977a25.581454 25.581454 0 0 1-2.382058 2.194676c-20.314231 18.881916-42.943782 46.786391-70.463226 81.780567-49.317327 62.590626-69.685463 104.012253-66.063605 134.332155 2.356389 19.728984 15.61172 38.459455 41.71425 58.950801 22.822066 17.914205 41.652645 26.505529 59.102246 26.9804 1.70697-0.038503 3.411374-0.074439 5.108077-0.084707 31.362052-2.048364 66.956877-31.069428 117.952939-95.908636 4.055659-5.149147 7.965006-10.139148 11.784513-15.039307-18.884483-39.735191-29.057-85.707883-28.959459-133.947124 0.030802-14.15887 11.517558-25.617391 25.668728-25.61739z" fill="#F19C7D" p-id="2210"></path><path d="M748.628453 149.815531c-6.691837-25.260595-22.806665-46.385958-45.382311-59.487277a97.459027 97.459027 0 0 0-48.839889-13.178325c-34.850432 0-67.308539 18.630363-84.711936 48.619138-27.049706 46.611843-11.140228 106.535489 35.463914 133.582627 14.9392 8.670896 31.88056 13.252764 48.991334 13.252764 34.719522 0 67.126291-18.676567 84.575892-48.742347 13.067949-22.519175 16.584565-48.81422 9.902996-74.04658z" fill="#FFD5A1" p-id="2211"></path><path d="M902.073542 754.332044c-67.228966 0-121.926458 54.697493-121.926458 121.926458s54.697493 121.926458 121.926458 121.926458 121.926458-54.697493 121.926458-121.926458-54.697493-121.926458-121.926458-121.926458z m-70.589002 121.926458c0-38.924059 31.664943-70.589002 70.589002-70.589002 38.921492 0 70.589002 31.664943 70.589002 70.589002s-31.66751 70.589002-70.589002 70.589002c-38.924059 0-70.589002-31.664943-70.589002-70.589002zM798.253805 136.673142c-10.205886-38.528761-34.793961-70.755849-69.241394-90.744087a148.840119 148.840119 0 0 0-74.608725-20.114015c-53.085496 0-102.559403 28.428116-129.113702 74.187757-41.257347 71.094676-16.990131 162.49845 54.096844 203.750663 22.757894 13.209127 48.611437 20.188455 74.760171 20.188454 52.954586 0 102.377155-28.47432 128.977657-74.310967 19.947169-34.36786 25.319633-74.482948 15.129149-112.957805z m-144.10424 135.933883c-17.110774 0-34.052135-4.584435-48.991334-13.252764-46.606709-27.047139-62.516187-86.973351-35.466481-133.582627 17.403398-29.988775 49.864071-48.619138 84.711936-48.619138 17.095373 0 33.985396 4.556199 48.839889 13.178325 22.573079 13.101319 38.690474 34.226682 45.382311 59.487277 6.68157 25.23236 3.164954 51.527405-9.902995 74.049147-17.447034 30.060647-49.853804 48.739781-84.573326 48.73978zM717.117522 613.338855c-48.000521 1.671034-90.993074-14.448927-124.329051-46.691416-9.497429-9.184271-18.006613-19.585239-25.548085-30.91285 28.004582-37.763833 47.623191-69.824074 54.302194-100.82163 13.440146-62.359608-29.960539-104.961996-63.766254-131.572766-36.28018-28.587262-67.223832-41.901632-97.376887-41.901631-26.554299 0-49.8076 10.008237-73.155874 28.371645-43.387851-20.345034-88.921608-28.607797-132.686789-23.882185-52.448912 5.667655-99.923224 29.862998-137.294326 69.970386-9.664276 10.372733-9.089297 26.615904 1.283437 36.277613a25.584021 25.584021 0 0 0 17.490671 6.889487 25.596856 25.596856 0 0 0 18.786942-8.170356c49.743428-53.388387 121.179498-68.402026 192.215136-42.317465-15.85814 17.649817-32.547947 38.39785-51.003763 61.866768-59.992951 76.141148-82.214369 126.023187-76.698159 172.17556 1.881518 15.742631 7.0589 30.514984 15.722096 44.763695 3.049445 18.861381 12.436499 98.742463-33.253837 165.162863C166.466835 823.914832 105.883503 856.568021 21.741413 869.5949A25.668728 25.668728 0 0 0 0 894.960737v77.552928c0 14.176838 11.49189 25.668728 25.668728 25.668728s25.668728-11.49189 25.668728-25.668728v-56.039967c87.858922-17.601047 152.770002-56.355692 193.13151-115.375798 32.378534-47.345969 42.558751-98.729629 44.553211-138.708673 27.085642 19.626309 51.8842 29.698718 76.893242 31.223441 1.303971 0.161713 2.625911 0.256687 3.978652 0.215617 0.546744-0.017968 1.080653-0.002567 1.627398-0.015401 0.379897 0.002567 0.757227 0.028236 1.137124 0.028236 1.221831 0 2.441096-0.035936 3.657794-0.077007 57.865014-0.395298 107.323519 19.148871 143.28284 56.789494 47.145753 49.353263 69.156687 127.47347 61.982277 219.973299a25.666161 25.666161 0 0 0 25.591722 27.65292h77.552928c14.176838 0 25.668728-11.49189 25.668728-25.668728s-11.49189-25.668728-25.668728-25.668728h-50.590496c2.014995-95.38756-25.052679-176.937109-77.41945-231.752677-26.348949-27.583615-58.067797-47.571854-93.944978-59.538615 21.926227-18.350574 45.359209-43.775449 71.749229-77.327043a233.156757 233.156757 0 0 0 22.573079 25.319633c41.539703 40.176693 94.291506 61.253286 153.04209 61.250719a252.297928 252.297928 0 0 0 8.791539-0.156579c14.169138-0.50054 25.247761-12.392862 24.747221-26.559433-0.50054-14.161437-12.367193-25.222092-26.556866-24.73952z m-211.143256-81.908911c-3.819507 4.902727-7.728854 9.892728-11.784513 15.039307-50.996062 64.841774-86.590887 93.860271-117.952939 95.908636-1.696703 0.010267-3.401106 0.046204-5.108077 0.084707-17.449601-0.474871-36.28018-9.066195-59.102246-26.9804-26.10253-20.491346-39.357861-39.224383-41.71425-58.950801-3.624424-30.317335 16.746278-71.741528 66.063605-134.332155 27.516876-34.994177 50.148994-62.898651 70.463226-81.780567a25.23236 25.23236 0 0 0 2.382058-2.194676c18.250466-16.466489 34.675885-25.447977 51.180876-25.447977 17.765327 0 39.22695 10.105778 65.614403 30.894881 47.094415 37.073344 49.627919 60.565364 45.346375 80.427825-3.670628 17.036335-14.171705 36.480396-29.583209 59.06631-8.812074-26.384886-13.483783-55.367446-13.424745-85.579539 0.028236-14.174272-11.440552-25.69183-25.617391-25.720065h-0.053904c-14.15117 0-25.637926 11.45852-25.666161 25.61739-0.100108 48.239241 10.072409 94.211932 28.956892 133.947124z" fill="" p-id="2212"></path></svg>