<?xml version="1.0" standalone="no"?><!DOCTYPE svg PUBLIC "-//W3C//DTD SVG 1.1//EN" "http://www.w3.org/Graphics/SVG/1.1/DTD/svg11.dtd"><svg t="1506322878182" class="icon" style="" viewBox="0 0 1024 1024" version="1.1" xmlns="http://www.w3.org/2000/svg" p-id="14485" xmlns:xlink="http://www.w3.org/1999/xlink" width="200" height="200"><defs><style type="text/css"></style></defs><path d="M866.816 316.52352c-49.12128 0-88.99072 39.90528-88.99072 88.99072 0 11.71456 2.29376 22.87104 6.35904 33.09056l-139.84256 55.89504-93.71648-187.43296a88.6784 88.6784 0 0 0 49.22368-79.53408c0-49.08032-39.87456-88.99072-88.99072-88.99072-49.12128 0-88.9856 39.9104-88.9856 88.99072 0 34.83136 20.0192 65.0752 49.22368 79.53408l-93.71648 187.43296-139.8784-55.89504a88.6272 88.6272 0 0 0 6.39488-33.09056c0-49.08032-39.86944-88.99072-88.99072-88.99072-49.12128 0-88.99072 39.9104-88.99072 88.99072 0 49.18784 39.86944 88.99072 88.99072 88.99072 5.00736 0 10.01472-0.34816 14.84288-1.24928l47.4112 281.63584c4.48512 44.4928 44.4928 75.5712 84.54144 75.5712h413.87008c44.4928 0 80.02048-31.0784 88.99072-75.5712l47.41632-281.63584c4.82816 0.90624 9.83552 1.24928 14.84288 1.24928 49.11616 0 88.99072-39.80288 88.99072-88.99072-0.00512-49.08544-39.87968-88.99072-88.99584-88.99072z m-270.75584 464.64l-85.20192-44.79488-85.20192 44.79488 16.27136-94.8736-68.93056-67.18976 95.2576-13.83936 42.5984-86.31808 42.60352 86.31808 95.2576 13.83936-68.93056 67.18976 16.27648 94.8736z" fill="#FDB926" p-id="14486"></path></svg>