<?xml version="1.0" standalone="no"?><!DOCTYPE svg PUBLIC "-//W3C//DTD SVG 1.1//EN" "http://www.w3.org/Graphics/SVG/1.1/DTD/svg11.dtd"><svg t="1506235755555" class="icon" style="" viewBox="0 0 1024 1024" version="1.1" xmlns="http://www.w3.org/2000/svg" p-id="2090" xmlns:xlink="http://www.w3.org/1999/xlink" width="200" height="200"><defs><style type="text/css"></style></defs><path d="M430.446294 347.686835a264.656361 264.656361 0 0 0-6.779345-0.088812c-44.201242 0-65.151857 9.534807-75.593006 43.447475a22.585673 22.585673 0 0 1-1.00654 3.45002c-6.547067 23.849542-8.555593 58.891722-9.865007 109.633199-1.701099 65.878297 4.34953 103.398115 19.258625 124.503582a22.772407 22.772407 0 0 1 2.422984 3.183583c13.995921 17.152177 34.95109 21.989036 63.642046 22.731416 1.812684 0.047822 3.586654 0.070594 5.342407 0.070595 57.98538 0 84.396818-21.064477 87.619113-145.884595 3.370316-130.702231-3.588931-158.94457-85.041277-161.046463z" fill="#EAF2DF" p-id="2091"></path><path d="M410.299546 245.570807l4.315371-167.231449c-14.540182 3.536555-27.966793 10.807784-39.113887 21.406063-16.780987 15.956626-26.349952 37.46061-26.946589 60.55183-1.03159 39.915475 25.224995 74.297256 61.745105 85.273556z" fill="#FFD5A1" p-id="2092"></path><path d="M460.146068 79.496196l-4.317649 167.343034c37.360411-8.931338 65.012945-41.789644 66.051367-82.069478 0.598914-23.091221-7.849649-45.059762-23.783502-61.863521-10.584615-11.151648-23.617263-19.128822-37.950216-23.410035z" fill="#EAF2DF" p-id="2093"></path><path d="M431.810361 294.743266c1.159116 0.029604 2.322786 0.045545 3.472792 0.045544h0.006832c34.634554 0 67.372167-13.296809 92.180427-37.442391 24.856082-24.193405 39.041015-56.650917 39.93597-91.399334 0.908619-35.242577-11.971454-68.759006-36.27189-94.380241-24.332317-25.655394-57.183792-40.286665-92.503795-41.197562-35.269904-0.897233-68.888809 12.003336-94.516876 36.369812-25.589354 24.332317-40.18419 57.140524-41.095085 92.383101-1.876446 72.901307 55.899428 133.74007 128.791625 135.621071z m-83.25592-134.446015c0.596637-23.091221 10.165603-44.595205 26.946589-60.55183 11.147093-10.598278 24.573705-17.869508 39.113887-21.406063l-4.315371 167.231449c-36.520109-10.9763-62.776695-45.358081-61.745105-85.273556z m173.323068 4.474778c-1.038422 40.279834-28.690956 73.13814-66.051367 82.069478l4.317648-167.343034c14.332953 4.281213 27.367879 12.258387 37.94794 23.412312 15.936131 16.799205 24.384694 38.770023 23.785779 61.861244z" fill="" p-id="2094"></path><path d="M1017.339048 180.744595c-8.894902-8.892625-23.309836-8.892625-32.207015 0l-212.30032 212.30032-9.093022-9.093022c-0.086535-0.086535-0.179902-0.15713-0.266438-0.241387a21.690718 21.690718 0 0 0-0.956441-0.865352 22.822506 22.822506 0 0 0-0.853965-0.712776 20.952892 20.952892 0 0 0-0.806143-0.592083 22.592505 22.592505 0 0 0-1.161393-0.785648c-0.088812-0.056931-0.170793-0.122971-0.261883-0.177624-0.368913-0.22317-0.744658-0.423567-1.118125-0.637628l-0.102476-0.059208c-30.963642-17.855844-70.794859-7.740341-89.388529 22.98419-16.478114 27.231244-10.86927 61.738273 11.629868 82.56364l-5.904885 5.907162c-7.751727 5.497259-15.792664 7.309943-25.211332 5.599735-25.862623-4.67973-59.80945-35.203864-89.377144-80.113328-6.540235-66.661667-33.379794-112.211036-128.340732-114.661347a305.389366 305.389366 0 0 0-7.952124-0.104753c-65.088094 0-97.365704 23.359935-113.764115 61.273715-63.569175-3.477347-111.384398-28.114814-135.593744-70.289311-25.261431-44.012231-22.093789-101.5285 8.471336-153.854938 6.344393-10.860161 2.68259-24.805983-8.177572-31.150375-10.860161-6.344393-24.805983-2.680312-31.150375 8.177571-38.895271 66.586518-42.126676 141.166152-8.644406 199.497673 30.897602 53.831693 88.190701 86.07059 162.984395 92.421814-4.395075 28.130755-5.235376 60.36282-6.1235 94.824304-1.471098 57.056266 2.463974 103.88089 19.16298 137.570388-35.012576 35.657035-136.807513 141.610214-237.329472 267.98341l-63.598779 43.60916c-10.372831 7.111823-13.016708 21.287646-5.902608 31.6582a22.740526 22.740526 0 0 0 18.800899 9.896888 22.669931 22.669931 0 0 0 12.857302-3.992003l66.420279-45.544814a22.856665 22.856665 0 0 0 4.962108-4.627353c96.718968-121.893864 195.047944-224.909402 232.624693-263.340116 19.358823 14.710975 45.838578 22.979636 81.68007 23.904196 2.211201 0.056931 4.376857 0.086535 6.515186 0.086535 30.177994 0 54.166448-5.761419 73.119922-17.714656 42.793907 19.686746 75.183102 60.94807 82.1173 105.980506 6.139441 39.872208-4.105865 100.749684-87.769411 164.343908a22.772407 22.772407 0 0 0 13.78186 40.90152H582.754985c12.574923 0 22.772407-10.195207 22.772407-22.772407s-10.197484-22.772407-22.772407-22.772407h-14.239586c62.567189-67.251473 65.065322-131.144015 59.602221-166.632535-8.439454-54.808629-44.993722-105.333769-94.416677-133.393929 17.375347-29.337692 25.580245-71.047633 27.313225-138.19663 0.15713-6.05746 0.309705-12.044326 0.441784-17.95832 21.993591 23.029735 49.627907 44.346986 79.769465 49.803254 4.94389 0.894956 9.839957 1.339018 14.669985 1.339018 16.377915 0 31.938301-5.155673 45.724716-15.141374 0.200397-0.129803 0.393963-0.273269 0.592083-0.409903 0.243665-0.179902 0.498716-0.332477 0.740103-0.514657 0.102476-0.077426 0.193565-0.166239 0.293764-0.245942 0.318814-0.250496 0.628518-0.514656 0.938223-0.78337 0.298319-0.259605 0.59436-0.519211 0.876738-0.79248 0.095644-0.093367 0.200397-0.17307 0.296041-0.266437l25.707771-25.707771a0.148021 0.148021 0 0 1 0.020495-0.018218l41.748654-41.750931 9.093022 9.093022a22.699535 22.699535 0 0 0 16.102369 6.670038 22.708644 22.708644 0 0 0 16.102369-6.670038c8.892625-8.892625 8.892625-23.312113 0-32.204738l-9.095299-9.095299 212.30032-212.30032c8.897179-8.890348 8.897179-23.309836 0.002277-32.204739zM515.483017 508.731021c-3.220018 124.822395-29.633733 145.884595-87.619114 145.884595-1.755753 0-3.529723-0.022772-5.342407-0.070595-28.688679-0.740103-49.643848-5.576963-63.642046-22.731417a22.772407 22.772407 0 0 0-2.422984-3.183582c-14.911372-21.105467-20.959724-58.625285-19.258625-124.503582 1.309413-50.741478 3.31794-85.783658 9.865007-109.633199 0.416735-1.115848 0.76743-2.2613 1.006541-3.45002 10.443426-33.912669 31.391763-43.447476 75.593005-43.447476 2.215755 0 4.463392 0.029604 6.779346 0.088813 81.4569 2.10417 88.416148 30.34651 85.041277 161.046463z m197.252313-55.587446c-8.070541-6.269244-10.359168-17.751091-4.946167-26.700647 5.444883-8.992824 16.765046-12.283436 26.085793-7.949848l6.754296 6.754296-27.893922 27.896199z" fill="" p-id="2095"></path></svg>