<?xml version="1.0" standalone="no"?><!DOCTYPE svg PUBLIC "-//W3C//DTD SVG 1.1//EN" "http://www.w3.org/Graphics/SVG/1.1/DTD/svg11.dtd"><svg t="1506235714666" class="icon" style="" viewBox="0 0 1024 1024" version="1.1" xmlns="http://www.w3.org/2000/svg" p-id="1617" xmlns:xlink="http://www.w3.org/1999/xlink" width="200" height="200"><defs><style type="text/css"></style></defs><path d="M494.586619 492.447383c-37.574493-23.091865-70.704128-57.236449-95.33862-99.284322-6.636386-11.326066-2.833299-25.88951 8.492767-32.523519 11.326066-6.636386 25.88951-2.833299 32.523519 8.492768 16.417448 28.019238 37.132384 51.745743 60.435795 69.848433 2.008505-26.082041 1.454681-47.113108-3.639078-62.824608-5.802084-17.895898-18.749215-35.535088-73.699059-43.336169-10.738965-1.530742-20.529535-2.305621-29.105495-2.305621-56.986871 0-68.949955 30.826391-86.277766 153.338063-10.408572 73.050157-7.468311 115.694639 9.524354 138.292102 11.057473 14.703682 30.379529 23.545858 60.81135 27.826707 8.678168 1.219365 16.726449 1.837366 23.921413 1.837366 14.998422 0 27.928915-2.305621 39.138512-9.486323 0.684556-0.520547 1.395257-0.991179 2.127351-1.430912 22.243301-15.816085 37.512692-52.299567 48.631966-130.859445 0.855694-6.030269 1.668604-11.863252 2.452991-17.58452z" fill="#E85512" p-id="1618"></path><path d="M447.554326 228.501309c49.891738 0 90.480177-40.600323 90.480177-90.503946C538.034503 88.119886 497.443687 47.538579 447.554326 47.538579c-49.896492 0-90.489684 40.578931-90.489685 90.458784 0 49.903623 40.593192 90.503946 90.489685 90.503946z" fill="#FFEBD4" p-id="1619"></path><path d="M896.955525 845.73033c-36.04375 0-65.365546 29.321795-65.365545 65.365546s29.321795 65.365546 65.365545 65.365545 65.365546-29.321795 65.365546-65.365545-29.324172-65.365546-65.365546-65.365546z" fill="#B4F0DF" p-id="1620"></path><path d="M701.93326 947.890736l-49.280867 18.70643c-16.52441-180.368498-106.557724-271.04596-159.078346-309.174277 24.598838-32.102802 37.165661-80.948692 45.625151-140.711816l0.387439-2.750107a213.096433 213.096433 0 0 0 20.36315 6.032646c16.020501 3.864886 32.038625 5.785445 47.904626 5.785445 38.216263 0 75.557817-11.135912 109.940094-33.044066 11.069358-7.054725 14.325751-21.7489 7.273403-32.820635-7.054725-11.071735-21.746523-14.325751-32.820635-7.273402-37.507939 23.902397-79.396557 31.211454-121.147314 21.140406a169.940911 169.940911 0 0 1-25.235854-8.271713c4.677796-42.342612 5.333829-76.515719-3.582032-104.016787-18.221537-56.1906-72.781564-70.138419-112.224323-75.738464-13.123025-1.870643-24.834153-2.77863-35.801304-2.77863-47.593248 0-80.41626 18.452099-100.344432 56.411655-6.541308 12.459861-11.651706 26.728566-15.946816 42.920206-37.619654 17.09725-68.940447 42.299827-91.038755 73.468496-25.887133 36.507251-38.534772 80.501829-36.578559 127.229875 0.534809 12.77837 11.05985 22.773356 23.731258 22.773356 0.335147 0 0.675048-0.007131 1.012572-0.021392 13.115894-0.549071 23.303411-11.627936 22.754341-24.74383-2.357914-56.318954 22.480994-105.250413 68.00156-137.348462-1.654343 10.612988-3.273031 21.763161-4.934505 33.502813-12.659524 88.863865-7.273403 139.143043 18.597092 173.544336 11.414013 15.179068 26.476611 26.514642 46.024475 34.517762-1.359603 48.420419-36.008096 76.620304-67.60699 86.382351-39.495051 12.198399-98.24085 3.073369-133.825852-62.793709a23.766912 23.766912 0 0 0-34.389408-8.28122L24.434829 745.464337c-10.81265 7.442164-13.546118 22.243301-6.101576 33.05595 7.444541 10.815027 22.243301 13.546118 33.055951 6.101577l44.814618-30.847784c35.499434 49.532822 85.12971 69.922118 131.0805 69.917365 15.540361 0 30.662383-2.334144 44.669625-6.660155 56.901302-17.579766 94.499564-63.834803 100.334924-119.918442 10.774619 1.492711 20.584205 2.227182 29.944551 2.227183 20.66502 0 38.144956-3.693748 53.038792-10.617742 44.738556 28.960502 144.255817 115.281053 152.004605 312.435424a23.771666 23.771666 0 0 0 32.185995 21.287775l79.339511-30.115689c12.274461-4.658781 18.444969-18.383168 13.786188-30.657629-4.656404-12.26733-18.383168-18.440215-30.655253-13.781434zM443.496908 640.888971a23.764535 23.764535 0 0 0-2.127351 1.430912c-11.20722 7.180702-24.14009 9.486323-39.138512 9.486323-7.194964 0-15.243245-0.618002-23.921413-1.837366-30.429444-4.280849-49.753876-13.123025-60.81135-27.826707-16.992665-22.597463-19.932926-65.239568-9.524354-138.292102 17.327812-122.511671 29.293272-153.338062 86.277766-153.338063 8.57596 0 18.36653 0.774879 29.105495 2.305621 54.949843 7.803458 67.896975 25.44027 73.699059 43.336169 5.093759 15.713877 5.647583 36.744944 3.639078 62.824608-23.301034-18.100314-44.018347-41.826818-60.435795-69.848433-6.634009-11.326066-21.197452-15.129153-32.523519-8.492767-11.326066 6.636386-15.129153 21.197452-8.492767 32.523518 24.634491 42.047873 57.764127 76.192457 95.33862 99.284322-0.784387 5.721268-1.597296 11.551875-2.455368 17.582143-11.116897 78.562255-26.386288 115.048114-48.629589 130.861822zM447.554326 276.039888c76.104511 0 138.018755-61.92613 138.018755-138.042525C585.573081 61.904737 523.658836 0 447.554326 0c-76.109264 0-138.028263 61.904737-138.028263 137.997363 0 76.116395 61.918999 138.042525 138.028263 138.042525z m0-228.501309c49.891738 0 90.480177 40.578931 90.480177 90.458784 0 49.903623-40.590815 90.503946-90.480177 90.503946-49.896492 0-90.489684-40.600323-90.489685-90.503946 0-49.879854 40.593192-90.458784 90.489685-90.458784zM896.955525 798.191751c-62.254146 0-112.904124 50.649979-112.904124 112.904125s50.649979 112.904124 112.904124 112.904124 112.904124-50.649979 112.904125-112.904124c0-62.256523-50.649979-112.904124-112.904125-112.904125z m0 178.26967c-36.04375 0-65.365546-29.321795-65.365545-65.365545s29.321795-65.365546 65.365545-65.365546 65.365546 29.321795 65.365546 65.365546c0 36.041373-29.324172 65.365546-65.365546 65.365545z" fill="" p-id="1621"></path></svg>