<?xml version="1.0" standalone="no"?><!DOCTYPE svg PUBLIC "-//W3C//DTD SVG 1.1//EN" "http://www.w3.org/Graphics/SVG/1.1/DTD/svg11.dtd"><svg t="1506322767233" class="icon" style="" viewBox="0 0 1024 1024" version="1.1" xmlns="http://www.w3.org/2000/svg" p-id="11336" xmlns:xlink="http://www.w3.org/1999/xlink" width="200" height="200"><defs><style type="text/css"></style></defs><path d="M512 1002.666667a366.933333 366.933333 0 1 1 366.933333-366.933334A367.146667 367.146667 0 0 1 512 1002.666667z" fill="#FDCA89" p-id="11337"></path><path d="M512 290.346667A345.6 345.6 0 1 1 166.4 635.733333a345.813333 345.813333 0 0 1 345.6-345.6m0-42.666666a388.266667 388.266667 0 1 0 388.266667 388.266666 388.266667 388.266667 0 0 0-388.266667-388.266666z" fill="#5C2D51" p-id="11338"></path><path d="M157.866667 107.733333a25.813333 25.813333 0 0 1 17.706666-31.786666L363.306667 21.333333a25.813333 25.813333 0 0 1 31.786666 17.706667l49.92 174.72a426.666667 426.666667 0 0 0-224.853333 111.786667z" fill="#9FDBAD" p-id="11339"></path><path d="M370.346667 42.666667a4.48 4.48 0 0 1 4.266666 3.2l42.666667 152.106666A448 448 0 0 0 230.4 287.36L178.346667 101.973333a4.48 4.48 0 0 1 2.986666-5.546666L369.066667 42.666667h1.28m0-42.666667a47.146667 47.146667 0 0 0-11.946667 1.92L169.813333 55.466667A47.146667 47.146667 0 0 0 137.386667 113.706667l67.626666 236.373333a9.6 9.6 0 0 0 9.173334 7.04 9.813333 9.813333 0 0 0 7.04-2.986667A403.413333 403.413333 0 0 1 461.013333 234.666667a9.6 9.6 0 0 0 8.106667-12.16L415.573333 34.133333A47.146667 47.146667 0 0 0 370.346667 0z" fill="#5C2D51" p-id="11340"></path><path d="M803.626667 325.546667a426.666667 426.666667 0 0 0-224.853334-110.72l49.92-174.72a25.813333 25.813333 0 0 1 32-18.773334L849.066667 75.946667a25.813333 25.813333 0 0 1 17.706666 31.786666z" fill="#9FDBAD" p-id="11341"></path><path d="M653.44 42.666667h1.28l187.52 53.546666a4.48 4.48 0 0 1 2.986667 5.546667l-52.906667 185.386667a448 448 0 0 0-186.666667-89.173334l42.666667-152.106666a4.48 4.48 0 0 1 4.266667-3.2m0-42.666667a47.146667 47.146667 0 0 0-45.226667 34.133333l-52.693333 187.733334a9.6 9.6 0 0 0 8.106666 12.16 403.413333 403.413333 0 0 1 239.573334 120.106666 9.813333 9.813333 0 0 0 7.04 2.986667 9.6 9.6 0 0 0 9.173333-7.04l67.84-236.373333a47.146667 47.146667 0 0 0-32.426667-58.24L666.453333 1.92a47.146667 47.146667 0 0 0-13.013333-1.92z" fill="#5C2D51" p-id="11342"></path><path d="M512 757.333333l-115.2 60.373334 21.76-128.213334-93.013333-90.666666 128.64-18.986667 57.6-116.693333 57.813333 116.693333 128.64 18.56-93.013333 91.093333 21.973333 128.213334h-0.213333L512 757.333333z" fill="#FFFFFF" p-id="11343"></path><path d="M512 512l33.493333 68.053333 10.026667 20.053334 21.333333 3.2 75.093334 10.88-54.4 52.906666-16 15.573334 3.84 21.333333 12.8 74.666667-67.2-35.2-19.84-10.453334-19.84 10.453334-67.2 35.2 12.8-74.666667 3.84-21.333333-16-15.573334-53.546667-53.76 75.093333-10.88 21.333334-3.2 10.026666-20.053333L512 512m0-69.333333a21.333333 21.333333 0 0 0-19.2 11.946666l-52.48 106.666667-117.546667 17.066667a21.333333 21.333333 0 0 0-11.946666 36.693333l85.333333 82.986667-20.053333 117.12a21.333333 21.333333 0 0 0 31.146666 22.613333l105.173334-55.253333 105.173333 55.253333a21.333333 21.333333 0 0 0 31.146667-22.613333l-20.053334-117.12 85.333334-82.986667a21.333333 21.333333 0 0 0-11.946667-36.693333l-117.546667-17.066667-52.48-106.666667a21.333333 21.333333 0 0 0-19.2-11.946666z" fill="#5C2D51" p-id="11344"></path></svg>