<?xml version="1.0" standalone="no"?><!DOCTYPE svg PUBLIC "-//W3C//DTD SVG 1.1//EN" "http://www.w3.org/Graphics/SVG/1.1/DTD/svg11.dtd"><svg t="1506235747263" class="icon" style="" viewBox="0 0 1024 1024" version="1.1" xmlns="http://www.w3.org/2000/svg" p-id="1970" xmlns:xlink="http://www.w3.org/1999/xlink" width="200" height="200"><defs><style type="text/css"></style></defs><path d="M442.787683 468.548044c-25.00723-24.976918-44.336827-55.333013-55.603487-88.645674-4.127067-12.199331 2.417948-25.431595 14.617279-29.558662 12.201663-4.127067 25.431595 2.42028 29.55633 14.61728 5.719602 16.909317 14.067004 32.864979 24.5339 47.381996 1.788396-12.537424 2.189444-23.554595 0.739141-33.000216-2.798012-18.240705-12.553746-37.35812-64.526813-53.574929-17.986552-5.61934-32.75539-8.349733-45.159909-8.349733-41.282331 0-57.970139 32.386985-90.359456 136.398407-21.58666 69.092236-25.461906 110.843233-12.570068 135.398117 8.389372 15.978978 25.704401 27.586064 54.49361 36.525711 15.039313 4.668016 27.735291 6.939069 38.817749 6.939069 33.746353 0 61.148214-20.826534 93.4396-124.492867 4.399873-14.092652 8.459322-27.294604 12.022124-39.638499z" fill="#E85512" p-id="1971"></path><path d="M431.968705 228.581234a90.259194 90.259194 0 0 0 14.447067 1.175165c43.625666 0 80.391539-31.351721 87.421543-74.546027 7.860081-48.293682-25.044536-93.98055-73.349876-101.842962a89.536374 89.536374 0 0 0-14.328152-1.163507c-42.996113 0-80.631702 32.020912-87.542791 74.487735-7.864745 48.31933 25.039873 94.027183 73.352209 101.889596z" fill="#FFAC52" p-id="1972"></path><path d="M875.164431 554.633537c14.141617 0 25.646109-11.506823 25.646109-25.646108 0-14.143949-11.504491-25.650772-25.646109-25.650773-14.143949 0-25.650772 11.504491-25.650772 25.650773 0 14.139286 11.506823 25.646109 25.650772 25.646108z" fill="#F7CF40" p-id="1973"></path><path d="M668.169857 387.683174c4.507131 14.670908 25.11915 27.140713 43.548721 32.983895 9.746407 3.094135 20.201644 4.79859 29.444409 4.79859h0.002332c7.559295 0 18.058834-1.151848 25.156457-6.642946 6.549679-5.064401 11.364591-12.346227 14.314161-21.640289 9.769724-30.792119-7.333122-63.792335-38.122909-73.564391a58.671974 58.671974 0 0 0-17.739394-2.765368c-25.627455 0-48.060514 16.431324-55.820334 40.888278-2.949571 9.301057-3.215382 18.028522-0.783443 25.942231zM640.052171 677.54786H1000.685568v26.424889H640.052171z" fill="#6ECCAE" p-id="1974"></path><path d="M1000.683236 703.972749H640.052171v-26.424889H1000.685568c12.877849 0 23.316764-10.438915 23.316764-23.316764 0-12.875517-10.438915-23.316764-23.316764-23.316765H616.735407c-12.877849 0-23.316764 10.441247-23.316764 23.316765v73.058417c0 12.875517 10.438915 23.316764 23.316764 23.316764H1000.685568c12.877849 0 23.316764-10.441247 23.316764-23.316764s-10.441247-23.316764-23.319096-23.316764z" fill="" p-id="1975"></path><path d="M611.353898 946.772545l-49.091115 16.279765c-6.197596-125.329939-50.501779-207.055197-88.202656-254.644713-22.146263-27.954469-44.460406-47.521897-61.668178-60.320469 27.09408-27.436836 45.889724-71.437902 62.889977-126.01312a2805.729548 2805.729548 0 0 0 6.738544-21.85014 234.501361 234.501361 0 0 0 42.082096 21.561012c25.769688 10.037867 52.14328 15.025323 78.178779 15.025323 16.939629 0 33.737026-2.114831 50.133375-6.325838l-1.00029 3.154758c-3.8939 12.273945 2.898274 25.382629 15.172219 29.276529 2.345666 0.743805 4.721645 1.100551 7.057984 1.100551 9.88864 0 19.06845-6.344492 22.218545-16.272769l24.524573-77.29041c6.39812 0.988631 13.400144 1.643832 20.777568 1.643832h0.004663c21.257894 0 39.822702-5.668305 53.684518-16.384691 14.190583-10.975201 24.363687-25.921247 30.23718-44.427762 17.545865-55.302701-13.166977-114.569252-68.469678-132.115117a105.144616 105.144616 0 0 0-31.843705-4.950149c-46.041283 0-86.337314 29.502702-100.271412 73.417495-5.871161 18.506516-6.178943 36.586335-0.911686 53.735815 8.627203 28.078047 33.095815 45.318463 52.364789 54.913311l-5.798879 18.271016c-40.135146 19.303949-85.651801 20.705287-129.132903 3.770321a189.611926 189.611926 0 0 1-45.752155-25.674089c7.53831-30.983316 10.984528-57.35924 7.452038-80.384544-8.785757-57.275299-59.413447-79.37726-96.722601-91.016989-22.544979-7.043994-41.86525-10.469227-59.059032-10.469227-27.947474 0-49.205367 9.079548-66.214947 24.606181-41.683379-25.604139-84.066262-38.73614-126.239293-39.046253a154.613463 154.613463 0 0 0-1.468956-0.006996c-46.108901 0-90.12862 16.00929-127.377151 46.342069-9.98657 8.130556-11.48817 22.817785-3.355282 32.802024 8.130556 9.98657 22.817785 11.48817 32.802023 3.355282 55.981219-45.581942 126.987761-47.416972 197.355424-5.990076-16.226136 29.535345-27.933483 67.105647-40.382304 107.084571-26.261671 84.047608-28.966416 133.577079-9.340696 170.960846a98.161245 98.161245 0 0 0 13.619322 19.688676c4.157379 30.530971 12.563073 172.921786-169.885943 270.873181a23.333086 23.333086 0 0 0-10.096159 10.672083L2.198771 985.238211c-5.451459 11.665377-0.412707 25.543515 11.25267 30.994975a23.316764 23.316764 0 0 0 30.994975-11.255002l30.929688-66.184635c116.884607-64.969832 161.45227-147.816626 178.207696-206.39067 7.533647-26.333953 10.26404-50.177676 10.807321-69.44665a230.905915 230.905915 0 0 0 20.287916 7.3168c19.58375 6.081012 36.805512 9.037578 52.64459 9.037578 11.439204 0 21.93408-1.51559 31.622196-4.416195 13.381491 8.212164 41.967844 28.301888 70.167138 64.510491 51.597667 66.252254 77.586533 152.256138 77.246108 255.621686a23.321428 23.321428 0 0 0 23.319096 23.393709 23.237487 23.237487 0 0 0 7.337786-1.186823l79.01585-26.20338c12.222648-4.052454 18.844609-17.24741 14.792155-29.470058-4.052454-12.217984-17.245079-18.842277-29.470058-14.787492z m113.419736-625.917548c5.987745 0 11.956837 0.932671 17.739394 2.765368 30.792119 9.769724 47.894965 42.772272 38.122909 73.564391-2.949571 9.294062-7.766814 16.575888-14.314161 21.640289-7.099955 5.491098-17.597162 6.642946-25.156457 6.642946h-0.002332c-9.242765 0-19.700334-1.702124-29.444409-4.79859-18.42957-5.845513-39.04159-18.315318-43.548721-32.983895-2.431939-7.916041-2.166127-16.643506 0.783443-25.9399 7.759819-24.459286 30.192878-40.890609 55.820334-40.890609zM337.323627 632.67941c-11.082458 0-23.778436-2.271053-38.817749-6.939069-28.789209-8.939647-46.104238-20.546733-54.493609-36.525711-12.891839-24.554884-9.016593-66.308214 12.570067-135.398117 32.389317-104.011422 49.077125-136.398407 90.359456-136.398407 12.404519 0 27.173357 2.730393 45.159909 8.349733 51.973067 16.214478 61.728801 35.331893 64.526813 53.574929 1.450303 9.445621 1.049254 20.462792-0.739141 33.000216-10.464564-14.517017-18.814297-30.472679-24.533899-47.381996-4.124736-12.194668-17.354668-18.744347-29.556331-14.61728-12.199331 4.127067-18.744347 17.356999-14.617279 29.558662 11.26666 33.312661 30.596258 63.668756 55.603487 88.645674-3.562802 12.341563-7.62225 25.545847-12.024455 39.640831-32.289055 103.666333-59.690916 124.490536-93.437269 124.490535z" fill="" p-id="1976"></path><path d="M424.47936 274.608527c7.256177 1.18216 14.635933 1.781401 21.936412 1.7814 66.604337 0 122.727788-47.813357 133.448836-113.687878 11.991812-73.67398-38.202186-143.367788-111.885493-155.361932a136.120937 136.120937 0 0 0-21.819828-1.769742c-31.771423 0-62.738417 11.343606-87.193039 31.943967a135.290861 135.290861 0 0 0-46.377044 81.68562c-11.996475 73.699628 38.197523 143.416753 111.890156 155.408565z m-65.862864-147.914557c6.911089-42.466823 44.546678-74.487735 87.542791-74.487735 4.763615 0 9.58319 0.391722 14.328152 1.163506 48.30534 7.862413 81.209958 53.549281 73.349876 101.842963-7.030004 43.191974-43.795878 74.546027-87.421543 74.546027a90.259194 90.259194 0 0 1-14.447067-1.175165c-48.312335-7.864745-81.216953-53.572597-73.352209-101.889596zM802.88013 528.987429c0 39.855345 32.426624 72.279637 72.284301 72.279637 39.855345 0 72.279637-32.424292 72.279637-72.279637 0-39.857677-32.424292-72.284301-72.279637-72.284301-39.857677 0-72.284301 32.426624-72.284301 72.284301z m72.284301-25.650773c14.141617 0 25.646109 11.504491 25.646109 25.650773 0 14.139286-11.504491 25.646109-25.646109 25.646108-14.143949 0-25.650772-11.506823-25.650772-25.646108 0-14.146281 11.506823-25.650772 25.650772-25.650773z" fill="" p-id="1977"></path></svg>