<?xml version="1.0" standalone="no"?><!DOCTYPE svg PUBLIC "-//W3C//DTD SVG 1.1//EN" "http://www.w3.org/Graphics/SVG/1.1/DTD/svg11.dtd"><svg t="1506323033490" class="icon" style="" viewBox="0 0 1024 1024" version="1.1" xmlns="http://www.w3.org/2000/svg" p-id="18379" xmlns:xlink="http://www.w3.org/1999/xlink" width="200" height="200"><defs><style type="text/css"></style></defs><path d="M94.4 962.4V168c0-58.4 47.2-106.4 106.4-106.4h654.4c58.4 0 106.4 47.2 106.4 106.4v490.4c0 58.4-47.2 106.4-106.4 106.4H292l-197.6 197.6z" fill="#FBD956" p-id="18380"></path><path d="M71.2 1020V168c0-72 58.4-130.4 130.4-130.4H856c72 0 130.4 58.4 130.4 130.4v490.4c0 72-58.4 130.4-130.4 130.4H302.4L71.2 1020zM200.8 85.6c-45.6 0-82.4 36.8-82.4 82.4v736.8l164-164H856c45.6 0 82.4-36.8 82.4-82.4V168c0-45.6-36.8-82.4-82.4-82.4H200.8z" fill="#444444" p-id="18381"></path><path d="M594.4 602.4H463.2V472h130.4v130.4zM594.4 438.4H463.2V226.4h130.4v212z" fill="#444444" p-id="18382"></path></svg>