<?xml version="1.0" standalone="no"?><!DOCTYPE svg PUBLIC "-//W3C//DTD SVG 1.1//EN" "http://www.w3.org/Graphics/SVG/1.1/DTD/svg11.dtd"><svg t="1506235794057" class="icon" style="" viewBox="0 0 1024 1024" version="1.1" xmlns="http://www.w3.org/2000/svg" p-id="2325" xmlns:xlink="http://www.w3.org/1999/xlink" width="200" height="200"><defs><style type="text/css"></style></defs><path d="M688.637562 510.288457a92.140495 92.140495 0 0 0 46.121448-12.285562l-126.683429-126.683428c-7.9872 13.899581-12.261181 29.688686-12.253867 46.138514 0.007314 24.778362 9.667048 48.079238 27.194515 65.604267 17.554286 17.559162 40.860038 27.228648 65.621333 27.226209z" fill="#FFD5A1" p-id="2326"></path><path d="M781.42659 417.487238c0.014629-24.81981-9.630476-48.142629-27.16038-65.670095-17.495771-17.49821-40.803962-27.133562-65.631086-27.133562-16.44739 0-32.224305 4.222781-46.082438 12.156343l126.685866 126.688305c7.940876-13.855695 12.175848-29.617981 12.188038-46.040991z" fill="#6ECCAE" p-id="2327"></path><path d="M688.64 559.050362c37.790476 0 73.347657-14.748038 100.122819-41.520762l0.021943-0.024381c26.672762-26.684952 41.376914-62.190933 41.403733-99.986286 0.024381-37.856305-14.6944-73.437867-41.440305-100.186209-26.706895-26.704457-62.2592-41.413486-100.113066-41.413486-37.853867 0-73.398857 14.699276-100.091124 41.391543l-0.021943 0.024381c-26.753219 26.762971-41.476876 62.327467-41.462247 100.142324 0.01219 37.79779 14.743162 73.335467 41.476876 100.069181 26.762971 26.76541 62.315276 41.506133 100.103314 41.503695z m-0.004876-234.369219c24.827124 0 48.135314 9.635352 65.631086 27.133562 17.529905 17.527467 27.17501 40.852724 27.16038 65.670095-0.009752 16.42301-4.244724 32.185295-12.188038 46.04099l-126.685866-126.688304c13.858133-7.931124 29.63261-12.156343 46.082438-12.156343z m-80.561981 46.640762l126.683428 126.683428a92.125867 92.125867 0 0 1-46.121447 12.285562c-24.761295 0.002438-48.067048-9.667048-65.623772-27.223771-17.527467-17.525029-27.184762-40.825905-27.194514-65.604267-0.004876-16.452267 4.269105-32.24381 12.256305-46.140952z" fill="" p-id="2328"></path><path d="M529.80541 541.179124c-34.182095-45.538743-56.441905-48.4352-75.410286-44.795124-0.207238 0.03901-0.426667 0.104838-0.636343 0.148724a294.282971 294.282971 0 0 0 5.912381 7.931124c8.250514 10.642286 6.30979 25.955962-4.332495 34.206476a24.2688 24.2688 0 0 1-14.921143 5.112686 24.341943 24.341943 0 0 1-19.285334-9.442743 328.426057 328.426057 0 0 1-12.853638-17.790781c-20.706743 12.529371-44.361143 29.917867-71.709257 50.488076-17.152 12.875581-31.70499 24.710095-43.8784 35.722971 14.862629-5.38819 32.945981-9.137981 56.790553-9.137981 47.386819 0 72.053029 14.799238 93.813028 27.855238 19.465752 11.680914 34.842819 20.906667 68.725029 20.906667 12.83901 0 23.013181-1.328762 31.765943-3.610819 19.292648-25.641448 21.582019-50.261333-13.980038-97.594514z" fill="#FFD5A1" p-id="2329"></path><path d="M292.690895 602.760533c12.17341-11.012876 26.7264-22.84739 43.8784-35.722971 27.348114-20.57021 51.002514-37.958705 71.709257-50.488076a329.386667 329.386667 0 0 0 12.853638 17.790781 24.341943 24.341943 0 0 0 19.285334 9.442743 24.273676 24.273676 0 0 0 14.921143-5.112686c10.642286-8.250514 12.58301-23.56419 4.332495-34.206476a294.282971 294.282971 0 0 1-5.912381-7.931124c0.209676-0.041448 0.426667-0.107276 0.636343-0.148724 18.968381-3.640076 41.230629-0.743619 75.410286 44.795124 35.562057 47.333181 33.272686 71.953067 13.982476 97.594514 14.34819-3.7376 24.868571-10.042514 36.959085-17.295848 7.818971-4.690895 16.035352-9.598781 25.521981-13.972723 1.311695-29.379048-11.129905-60.545219-37.473523-95.605029-24.541867-32.694857-64.060952-74.84221-123.604115-63.400228-5.632 1.082514-11.317638 2.652648-17.071543 4.590933-38.00259-81.77859-21.574705-166.760838 47.550172-223.266133 10.425295-8.521143 11.96861-23.881143 3.447467-34.306439-8.523581-10.422857-23.881143-11.966171-34.306439-3.445028-52.899352 43.239619-82.390552 100.03261-85.284571 164.239847-1.757867 39.019276 6.870552 79.367314 24.756419 117.859962-23.169219 13.877638-48.327924 32.309638-77.0048 53.879467-58.7776 44.12221-91.421257 79.108876-105.333029 113.617676 23.907962-2.347886 37.400381-10.396038 53.730743-20.192305 10.808076-6.485333 22.342705-13.399771 37.015162-18.717257z" fill="" p-id="2330"></path><path d="M24.419962 642.384457c33.879771 0 49.256838 9.225752 68.72259 20.906667 21.76 13.056 46.423771 27.855238 93.810591 27.855238 47.386819 0 72.048152-14.799238 93.808152-27.855238 19.465752-11.680914 34.842819-20.906667 68.720153-20.906667 33.879771 0 49.259276 9.225752 68.725028 20.906667 21.76 13.056 46.42621 27.855238 93.813029 27.855238 47.389257 0 72.053029-14.7968 93.815466-27.855238 19.46819-11.680914 34.842819-20.906667 68.725029-20.906667 33.884648 0 49.264152 9.225752 68.732343 20.906667 21.762438 13.056 46.42621 27.855238 93.815467 27.855238 47.389257 0 72.055467-14.7968 93.815466-27.855238 19.46819-11.680914 34.847695-20.906667 68.732343-20.906667 13.4656 0 24.380952-10.91779 24.380952-24.380952 0-13.4656-10.915352-24.380952-24.380952-24.380953-47.391695 0-72.055467 14.7968-93.820343 27.855238-19.46819 11.680914-34.845257 20.906667-68.729905 20.906667-33.884648 0-49.261714-9.225752-68.729904-20.906667-21.762438-13.058438-46.428648-27.855238-93.817905-27.855238-30.3616 0-51.373105 6.083048-68.291048 13.882515-9.489067 4.373943-17.70301 9.281829-25.521981 13.972723-12.090514 7.255771-22.610895 13.558248-36.959085 17.295848-8.752762 2.282057-18.929371 3.610819-31.765943 3.610819-33.879771 0-49.256838-9.225752-68.725029-20.906667-21.76-13.056-46.42621-27.855238-93.813028-27.855238-23.844571 0-41.927924 3.74979-56.790553 9.137981-14.672457 5.317486-26.207086 12.231924-37.0176 18.717257-16.330362 9.798705-29.822781 17.846857-53.730743 20.192305a152.471162 152.471162 0 0 1-14.989409 0.714362c-33.879771 0-49.256838-9.225752-68.722591-20.906667-21.76-13.056-46.423771-27.855238-93.81059-27.855238-13.4656 0-24.380952 10.915352-24.380952 24.380953 0 13.463162 10.915352 24.380952 24.380952 24.380952zM999.658057 739.908267c-47.391695 0-72.055467 14.7968-93.820343 27.855238-19.46819 11.680914-34.845257 20.906667-68.729904 20.906666-33.884648 0-49.261714-9.225752-68.729905-20.906666-21.762438-13.056-46.428648-27.855238-93.817905-27.855238-47.386819 0-72.053029 14.7968-93.813029 27.855238-19.46819 11.680914-34.845257 20.906667-68.727466 20.906666-33.879771 0-49.256838-9.225752-68.725029-20.906666-21.76-13.053562-46.42621-27.855238-93.813028-27.855238s-72.048152 14.799238-93.808153 27.855238c-19.465752 11.680914-34.842819 20.906667-68.720152 20.906666-33.879771 0-49.256838-9.225752-68.722591-20.906666-21.76-13.053562-46.423771-27.855238-93.81059-27.855238-13.4656 0-24.380952 10.91779-24.380952 24.380952s10.915352 24.380952 24.380952 24.380952c33.879771 0 49.256838 9.225752 68.72259 20.906667 21.76 13.056 46.423771 27.855238 93.810591 27.855238 47.386819 0 72.048152-14.799238 93.808152-27.855238 19.465752-11.680914 34.842819-20.906667 68.720153-20.906667 33.879771 0 49.259276 9.225752 68.725028 20.906667 21.76 13.056 46.42621 27.855238 93.813029 27.855238 47.389257 0 72.053029-14.7968 93.815466-27.855238 19.46819-11.680914 34.842819-20.906667 68.725029-20.906667 33.884648 0 49.264152 9.225752 68.732343 20.906667 21.762438 13.056 46.42621 27.855238 93.815467 27.855238 47.389257 0 72.055467-14.7968 93.815466-27.855238 19.46819-11.680914 34.847695-20.906667 68.732343-20.906667 13.4656 0 24.380952-10.91779 24.380952-24.380952 0.002438-13.463162-10.912914-24.380952-24.378514-24.380952z" fill="#6ECCAE" p-id="2331"></path></svg>