<?xml version="1.0" standalone="no"?><!DOCTYPE svg PUBLIC "-//W3C//DTD SVG 1.1//EN" "http://www.w3.org/Graphics/SVG/1.1/DTD/svg11.dtd"><svg t="1506235741090" class="icon" style="" viewBox="0 0 1024 1024" version="1.1" xmlns="http://www.w3.org/2000/svg" p-id="1851" xmlns:xlink="http://www.w3.org/1999/xlink" width="200" height="200"><defs><style type="text/css"></style></defs><path d="M434.924199 350.547919c11.23477-6.579153 25.67779-2.809871 32.254586 8.422541a255.915138 255.915138 0 0 0 28.162357 39.175544c0.462026-7.382983 0.315875-14.167219-0.619963-20.27256-2.828729-18.443315-12.691565-37.76825-65.235212-54.160737-18.184015-5.681031-33.114991-8.4414-45.655691-8.441399-41.735543 0-58.606556 32.742541-91.351455 137.898195-21.823646 69.848398-25.741436 112.057753-12.708066 136.884567 8.481473 16.156759 25.986593 27.888913 55.09186 36.926703 15.20442 4.719263 28.039779 7.015249 39.241547 7.015249 34.116832 0 61.821878-21.055175 94.467772-125.861952 6.157201-19.713886 11.635506-37.683389 16.048324-54.012228-22.259742-19.782247-42.018416-43.842947-58.113886-71.31698-6.583867-11.23477-2.814586-25.675433 8.417827-32.256943z" fill="#EAF2DF" p-id="1852"></path><path d="M469.788287 225.456796c4.841842 0.78733 9.756759 1.188066 14.60803 1.188066 44.102247 0 81.27175-31.693554 88.376574-75.362063 3.842357-23.601031-1.749098-47.315212-15.744235-66.776869-14.009282-19.482873-34.753297-32.332376-58.410903-36.184162a90.519337 90.519337 0 0 0-14.485451-1.17628c-43.46814 0-81.516906 32.372449-88.503867 75.303131-7.948729 48.84744 25.319484 95.05709 74.159852 103.008177z" fill="#FFEBD4" p-id="1853"></path><path d="M917.849576 492.51477c-14.299227 0-25.932376 11.633149-25.932375 25.932375 0 14.294512 11.633149 25.927661 25.932375 25.927662 14.294512 0 25.927661-11.630792 25.927662-25.927662 0-14.299227-11.630792-25.932376-25.927662-25.932375z" fill="#F7CF40" p-id="1854"></path><path d="M462.214365 271.989392a138.419153 138.419153 0 0 0 22.181952 1.800958c67.333186 0 124.072781-48.335912 134.909171-114.933628 5.862541-36.016796-2.661363-72.196243-23.999411-101.871971C573.937385 27.26895 542.288619 7.665856 506.189319 1.791529a137.294733 137.294733 0 0 0-22.057017-1.791529c-32.120221 0-63.427182 11.46814-88.150276 32.294659a136.769061 136.769061 0 0 0-46.886188 82.582394c-12.12582 74.504015 38.619227 144.986519 113.118527 157.112339z m-66.583573-149.540773C402.615396 79.517937 440.666519 47.145488 484.132302 47.145488a90.519337 90.519337 0 0 1 14.485451 1.17628c23.657606 3.849429 44.401621 16.698932 58.410903 36.184162 13.992781 19.461657 19.586593 43.175838 15.744235 66.776869-7.107182 43.668508-44.274328 75.362063-88.376574 75.362063-4.853628 0-9.768545-0.398379-14.60803-1.188066-48.840368-7.951087-82.108582-54.160737-74.157495-103.008177z" fill="" p-id="1855"></path><path d="M953.984236 200.889282c12.161179-38.053481 11.774586-77.841915-1.093776-112.038895-13.596759-36.137017-39.328766-61.869024-72.453186-72.455544a106.36965 106.36965 0 0 0-32.419594-5.037495c-57.986593 0-113.295322 46.334586-134.499006 112.677716-12.161179 38.053481-11.774586 77.841915 1.093775 112.038895 0.365378 0.971197 0.773186 1.904678 1.157422 2.859374 3.481694 10.638379 7.015249 23.412449 10.230571 37.089356-12.783499 46.018711-39.590424 81.045451-75.963168 98.904162-31.936354 15.680589-69.758821 16.854512-107.795801 3.686777a119.332302 119.332302 0 0 0-0.921694-7.885083c-8.884567-57.904088-60.065709-80.248692-97.784457-92.016206-22.794843-7.121326-42.324862-10.584162-59.707403-10.584162-83.110424 0-107.788729 79.25628-136.358895 171.003757-26.549982 84.967956-29.286777 135.043536-9.443241 172.837716a99.238895 99.238895 0 0 0 13.768839 19.904825c4.20302 30.868508 12.698637 174.820184-171.751012 273.846925a23.579816 23.579816 0 0 0-10.206999 10.789245L35.300184 990.418269c-5.511308 11.795801-0.419595 25.823941 11.376206 31.335248a23.473738 23.473738 0 0 0 9.964199 2.22291c8.870424 0 17.368398-5.032781 21.37105-13.599116l31.269245-66.911234c118.167808-65.683094 163.224751-149.439411 180.164125-208.656501 7.616354-26.623057 10.376722-50.728545 10.925967-70.206703a233.719042 233.719042 0 0 0 20.510645 7.397127c19.798748 6.147772 37.207219 9.134438 53.220184 9.134438 11.583646 0 22.212597-1.536943 32.021215-4.478821 31.872707 19.480516 149.701068 106.268287 148.984457 323.65849a23.563315 23.563315 0 0 0 23.575101 23.650534 23.544457 23.544457 0 0 0 7.415986-1.197496l79.885672-26.491049c12.356832-4.096943 19.053849-17.436759 14.956906-29.793591-4.0993-12.35919-17.45326-19.046777-29.795949-14.954549l-49.632412 16.45849c-6.265635-126.705856-51.053849-209.328324-89.170976-257.440295-22.389392-28.261363-44.948508-48.04361-62.345194-60.982689 27.391529-27.740405 46.393517-72.22453 63.580406-127.396538 4.212449-13.488324 8.12081-26.243536 11.652007-38.397642 19.275433 11.324346 39.665856 19.749245 60.647956 24.810313 15.888029 3.832928 31.773702 5.737606 47.508508 5.737606 22.790129 0 45.259669-4.02151 66.97488-11.930166l-2.838158 8.879853c-3.964936 12.401621 2.878232 25.666004 15.275138 29.630939 2.387919 0.7614 4.804125 1.126777 7.184972 1.126777 9.975985 0 19.244788-6.388214 22.445967-16.401915l38.01105-118.924494c9.723757-30.422983 68.455249-86.542615 105.337164-113.707845 30.48663-19.716243 55.487882-52.300847 68.207735-92.101068z m-527.482579 181.91558c16.09547 27.474033 35.856501 51.534733 58.113886 71.31698-4.412818 16.32884-9.888766 34.3007-16.048324 54.012228-32.645893 104.806777-60.350939 125.861952-94.467771 125.861952-11.201768 0-24.037127-2.295985-39.241547-7.015249-29.105267-9.03779-46.610387-20.769945-55.09186-36.926703-13.03337-24.826814-9.11558-67.036169 12.708066-136.884567 32.744899-105.155654 49.615912-137.898195 91.351455-137.898195 12.5407 0 27.471676 2.760368 45.65569 8.441399 52.543646 16.392486 62.406483 35.717422 65.235212 54.160737 0.935838 6.107698 1.081989 12.889576 0.619963 20.27256a256.033002 256.033002 0 0 1-28.162357-39.175544c-6.579153-11.232413-21.019816-15.001694-32.254586-8.422541-11.227698 6.58151-14.99698 21.022173-8.417827 32.256943z m309.031603 9.535175v0.002357l-15.270424 47.77488c-1.084346 0.478527-2.152192 1.015985-3.18232 1.671308-37.200147 23.704751-78.742394 30.951013-120.147919 20.965598-20.718085-4.999779-40.818564-14.202578-59.492892-26.964861 0.601105-2.94895 1.162136-5.862541 1.668951-8.72663 18.358453 5.200147 36.702762 7.819079 54.655764 7.819079 26.988435 0 53.099963-5.879042 77.054586-17.639484 26.884715-13.200737 49.769134-33.004199 67.639631-58.057312 0.462026 13.462394-0.341805 25.064899-2.925377 33.155065z m46.966335-69.51838a496.64 496.64 0 0 0-2.505783-16.856869 107.373849 107.373849 0 0 0 7.074181 2.562357c2.390276 0.763757 4.806483 1.430866 7.241547 2.022542a497.806851 497.806851 0 0 0-11.809945 12.27197z m36.987992-56.400147c-6.173702 0-12.253112-0.940552-18.068508-2.800442-19.105709-6.107698-34.265341-21.788287-42.678453-44.149392-9.146225-24.303499-9.257017-53.099963-0.31116-81.083168 14.794254-46.289797 52.472928-79.885672 89.590571-79.885672 6.173702 0 12.253112 0.940552 18.068508 2.800442 19.105709 6.107698 34.265341 21.788287 42.678453 44.149392 9.146225 24.303499 9.257017 53.099963 0.31116 81.083168-14.794254 46.289797-52.470571 79.885672-89.590571 79.885672z" fill="" p-id="1856"></path><path d="M917.849576 445.369282c-40.295249 0-73.077864 32.782615-73.077863 73.077863 0 40.292891 32.782615 73.073149 73.077863 73.07315 40.292891 0 73.073149-32.780258 73.07315-73.07315 0-40.295249-32.780258-73.077864-73.07315-73.077863z m0 99.005525c-14.299227 0-25.932376-11.630792-25.932375-25.927662 0-14.299227 11.633149-25.932376 25.932375-25.932375 14.294512 0 25.927661 11.633149 25.927662 25.932375 0 14.296869-11.630792 25.927661-25.927662 25.927662z" fill="" p-id="1857"></path></svg>