<?xml version="1.0" standalone="no"?><!DOCTYPE svg PUBLIC "-//W3C//DTD SVG 1.1//EN" "http://www.w3.org/Graphics/SVG/1.1/DTD/svg11.dtd"><svg t="1500373200237" class="icon" style="" viewBox="0 0 1024 1024" version="1.1" xmlns="http://www.w3.org/2000/svg" p-id="1541" xmlns:xlink="http://www.w3.org/1999/xlink" width="200" height="200"><defs><style type="text/css"></style></defs><path d="M512.017287 512.060244m-511.939756 0a511.939756 511.939756 0 1 0 1023.879512 0 511.939756 511.939756 0 1 0-1023.879512 0Z" fill="#F8E294" p-id="1542"></path><path d="M65.34985 592.325085a511.939756 511.939756 0 0 0 21.026097 144.988652A481.771877 481.771877 0 1 0 819.18114 141.086757 511.939756 511.939756 0 0 0 65.34985 592.325085z" fill="#F6D65D" p-id="1543"></path><path d="M427.181556 967.13812a602.07772 602.07772 0 0 1-171.134147-23.768632 489.268138 489.268138 0 0 0 748.529057-417.779407 603.357569 603.357569 0 0 1-577.39491 441.548039z" fill="#F2C13A" p-id="1544"></path><path d="M939.852654 230.85905A511.939756 511.939756 0 1 0 1023.957043 512.060244a511.939756 511.939756 0 0 0-84.104389-281.201194zM512.017287 993.832122A481.589042 481.589042 0 1 1 993.789164 512.060244 482.137548 482.137548 0 0 1 512.017287 993.832122z" fill="#D98613" p-id="1545"></path><path d="M769.998357 596.164633a264.563152 264.563152 0 0 1-525.286757-2.376863z" fill="#E86563" p-id="1546"></path><path d="M507.446396 850.306154a286.869099 286.869099 0 0 1-285.223578-254.141521L219.480284 570.933316l576.297896 2.742535-3.108205 25.231316a287.417606 287.417606 0 0 1-285.223579 251.398987zM271.222766 616.459387a242.07437 242.07437 0 0 0 471.715918 2.194028z" fill="#C44F1C" p-id="1547"></path><path d="M625.375376 405.649909l44.611893-44.611893a30.167878 30.167878 0 0 0 0-42.600701 30.167878 30.167878 0 0 0-42.600701 0L562.114249 384.075305a31.996235 31.996235 0 0 0 0 43.880551l65.089483 65.089483a30.167878 30.167878 0 1 0 42.600701-42.600701zM378.364444 405.649909l-44.611893 44.611893a30.167878 30.167878 0 0 0 0 42.600702 30.167878 30.167878 0 0 0 42.600701 0l65.089483-65.089484a31.996235 31.996235 0 0 0 0-43.88055l-65.089483-65.089483a30.167878 30.167878 0 0 0-42.600701 42.600701z" fill="#582A14" p-id="1548"></path></svg>