<?xml version="1.0" standalone="no"?><!DOCTYPE svg PUBLIC "-//W3C//DTD SVG 1.1//EN" "http://www.w3.org/Graphics/SVG/1.1/DTD/svg11.dtd"><svg t="1500373154475" class="icon" style="" viewBox="0 0 1024 1024" version="1.1" xmlns="http://www.w3.org/2000/svg" p-id="1295" xmlns:xlink="http://www.w3.org/1999/xlink" width="200" height="200"><defs><style type="text/css"></style></defs><path d="M512.017287 512.060244m-511.939756 0a511.939756 511.939756 0 1 0 1023.879512 0 511.939756 511.939756 0 1 0-1023.879512 0Z" fill="#F8E294" p-id="1296"></path><path d="M65.34985 592.325085a511.939756 511.939756 0 0 0 21.026097 144.988652A481.771877 481.771877 0 1 0 819.18114 141.086757 511.939756 511.939756 0 0 0 65.34985 592.325085z" fill="#F6D65D" p-id="1297"></path><path d="M427.181556 967.13812a602.07772 602.07772 0 0 1-171.134147-23.768632 489.268138 489.268138 0 0 0 748.529057-417.779407 603.357569 603.357569 0 0 1-577.39491 441.548039z" fill="#F2C13A" p-id="1298"></path><path d="M939.852654 230.85905A511.939756 511.939756 0 1 0 1023.957043 512.060244a511.939756 511.939756 0 0 0-84.104389-281.201194zM512.017287 993.832122A481.589042 481.589042 0 1 1 993.789164 512.060244 482.137548 482.137548 0 0 1 512.017287 993.832122z" fill="#D98613" p-id="1299"></path><path d="M340.700305 385.720826m-55.21636 0a55.216359 55.216359 0 1 0 110.432719 0 55.216359 55.216359 0 1 0-110.432719 0Z" fill="#582A14" p-id="1300"></path><path d="M740.927492 438.925994a22.671618 22.671618 0 0 1-21.757439-16.272371 44.246222 44.246222 0 0 0-84.287225-2.011192 22.671618 22.671618 0 1 1-42.783536-14.62685 89.406622 89.406622 0 0 1 170.402804 4.022383A22.671618 22.671618 0 0 1 740.927492 438.925994z" fill="#582A14" p-id="1301"></path><path d="M461.371818 689.227967l-36.567125 74.4141a84.835731 84.835731 0 0 1-112.992417 39.492496 84.835731 84.835731 0 0 1-39.492496-112.992418l39.492496-81.910361" fill="#E86563" p-id="1302"></path><path d="M512.017287 705.866009A313.745936 313.745936 0 0 1 251.476519 566.910932a22.671618 22.671618 0 1 1 36.567125-25.231316 269.316879 269.316879 0 0 0 446.301766 0 22.671618 22.671618 0 1 1 36.567125 25.231316A314.294443 314.294443 0 0 1 512.017287 705.866009z" fill="#C44F1C" p-id="1303"></path><path d="M349.110743 834.033784a107.141677 107.141677 0 0 1-96.354375-153.764763L292.614535 598.35866a22.671618 22.671618 0 1 1 40.223838 19.746248L292.614535 700.015269a61.981278 61.981278 0 0 0 111.712568 53.93651l36.567125-74.4141a22.671618 22.671618 0 0 1 40.772345 19.563412l-36.567125 74.4141a106.410335 106.410335 0 0 1-61.249935 54.850688 107.690184 107.690184 0 0 1-34.73877 5.667905z" fill="#C44F1C" p-id="1304"></path></svg>