<?xml version="1.0" standalone="no"?><!DOCTYPE svg PUBLIC "-//W3C//DTD SVG 1.1//EN" "http://www.w3.org/Graphics/SVG/1.1/DTD/svg11.dtd"><svg t="1500373212799" class="icon" style="" viewBox="0 0 1024 1024" version="1.1" xmlns="http://www.w3.org/2000/svg" p-id="1661" xmlns:xlink="http://www.w3.org/1999/xlink" width="200" height="200"><defs><style type="text/css"></style></defs><path d="M512 512m-512 0a512 512 0 1 0 1024 0 512 512 0 1 0-1024 0Z" fill="#F8E294" p-id="1662"></path><path d="M65.330466 592.194982a511.816487 511.816487 0 0 0 20.92043 144.97491A481.72043 481.72043 0 1 0 819.2 140.937634 512 512 0 0 0 65.330466 592.194982z" fill="#F6D65D" p-id="1663"></path><path d="M427.217204 967.111111A602.104659 602.104659 0 0 1 256.917563 943.25448a489.244444 489.244444 0 0 0 747.630107-417.858064A602.471685 602.471685 0 0 1 427.217204 967.111111z" fill="#F2C13A" p-id="1664"></path><path d="M939.767742 230.858781a511.816487 511.816487 0 1 0 84.048745 281.141219 511.449462 511.449462 0 0 0-84.048745-281.141219zM512 993.72043A481.72043 481.72043 0 1 1 993.72043 512 482.270968 482.270968 0 0 1 512 993.72043z" fill="#D98613" p-id="1665"></path><path d="M767.816487 591.827957a264.62509 264.62509 0 0 1-525.396415-2.385663z" fill="#FFFFFF" p-id="1666"></path><path d="M505.393548 845.992832A286.830108 286.830108 0 0 1 220.215054 592.01147l-2.936201-25.324732 576.229391 2.752689-3.119714 25.324731A287.380645 287.380645 0 0 1 505.393548 845.992832zM269.212903 612.014337a242.053047 242.053047 0 0 0 471.810753 2.20215z" fill="#C44F1C" p-id="1667"></path><path d="M623.942652 408.682437l44.593549-44.593548a30.27957 30.27957 0 0 0 0-42.574911 30.27957 30.27957 0 0 0-42.574911 0l-65.146953 65.146954a32.114695 32.114695 0 0 0 0 43.859498L625.594265 495.483871a30.096057 30.096057 0 0 0 42.574911-42.57491zM376.567742 408.682437L332.157706 453.275986a30.27957 30.27957 0 0 0 0 42.57491 30.27957 30.27957 0 0 0 42.57491 0L440.430108 430.703943a32.114695 32.114695 0 0 0 0-43.859499l-65.146954-65.146953a30.096057 30.096057 0 0 0-42.57491 42.57491z" fill="#582A14" p-id="1668"></path><path d="M621.189964 710.010036V807.455197a116.346953 116.346953 0 0 1-115.979928 115.979928A116.346953 116.346953 0 0 1 389.046595 807.455197v-97.445161z" fill="#E86563" p-id="1669"></path><path d="M505.210036 946.924731A138.735484 138.735484 0 0 1 367.02509 807.455197v-120.017204h276.736917V807.455197a138.735484 138.735484 0 0 1-138.551971 139.469534z m-93.591398-214.342652V807.455197a93.407885 93.407885 0 0 0 186.999283 0v-74.873118z" fill="#C44F1C" p-id="1670"></path></svg>