<?xml version="1.0" standalone="no"?><!DOCTYPE svg PUBLIC "-//W3C//DTD SVG 1.1//EN" "http://www.w3.org/Graphics/SVG/1.1/DTD/svg11.dtd"><svg t="1500373115036" class="icon" style="" viewBox="0 0 1024 1024" version="1.1" xmlns="http://www.w3.org/2000/svg" p-id="1172" xmlns:xlink="http://www.w3.org/1999/xlink" width="200" height="200"><defs><style type="text/css"></style></defs><path d="M512.017287 512.060244m-511.939756 0a511.939756 511.939756 0 1 0 1023.879512 0 511.939756 511.939756 0 1 0-1023.879512 0Z" fill="#F8E294" p-id="1173"></path><path d="M65.34985 592.325085a511.939756 511.939756 0 0 0 21.026097 144.988652A481.771877 481.771877 0 1 0 819.18114 141.086757 511.939756 511.939756 0 0 0 65.34985 592.325085z" fill="#F6D65D" p-id="1174"></path><path d="M427.181556 967.13812a602.07772 602.07772 0 0 1-171.134147-23.768632 489.268138 489.268138 0 0 0 748.529057-417.779407 603.357569 603.357569 0 0 1-577.39491 441.548039z" fill="#F2C13A" p-id="1175"></path><path d="M939.852654 230.85905A511.939756 511.939756 0 1 0 1023.957043 512.060244a511.939756 511.939756 0 0 0-84.104389-281.201194zM512.017287 993.832122A481.589042 481.589042 0 1 1 993.789164 512.060244 482.137548 482.137548 0 0 1 512.017287 993.832122z" fill="#D98613" p-id="1176"></path><path d="M595.024662 387.000675a54.850688 54.850688 0 0 1 36.567125-86.664087h7.13059a64.906648 64.906648 0 0 1 65.455154 61.0671A64.906648 64.906648 0 0 1 767.987165 299.970917h7.130589a54.850688 54.850688 0 0 1 36.567126 86.664087l-108.421527 114.455103z" fill="#E83B3D" p-id="1177"></path><path d="M722.278258 636.022799a207.152765 207.152765 0 0 1-411.380161-1.828356z" fill="#E86563" p-id="1178"></path><path d="M516.771013 839.884524a229.458712 229.458712 0 0 1-227.996027-203.130382l-2.92537-25.231317 462.02563 2.194028-3.108206 25.231316a229.824383 229.824383 0 0 1-227.996027 200.936355z m-178.630407-182.835627A184.663983 184.663983 0 0 0 694.852914 658.328746z" fill="#C44F1C" p-id="1179"></path><path d="M703.263353 534.183355l-126.887925-134.20135a79.716333 79.716333 0 0 1-7.496261-78.253648 73.134251 73.134251 0 0 1 59.055908-43.880551 91.417814 91.417814 0 0 1 75.145442 27.791015A90.137964 90.137964 0 0 1 767.987165 277.299299a83.921553 83.921553 0 0 1 9.690288 0 73.134251 73.134251 0 0 1 59.055908 43.880551 79.716333 79.716333 0 0 1-7.496261 78.253648l-2.011192 2.559699z m-91.417814-161.443858l91.417814 95.805868 91.417813-95.805868a34.373098 34.373098 0 0 0 2.194028-32.544742 28.888029 28.888029 0 0 0-23.037289-18.283563 43.149208 43.149208 0 0 0-47.354427 38.212646h-45.708907a42.966372 42.966372 0 0 0-47.354428-38.212646 28.888029 28.888029 0 0 0-23.037289 18.283563 34.373098 34.373098 0 0 0 2.194028 32.544742z" fill="#D32A29" p-id="1180"></path><path d="M201.196721 387.000675a54.850688 54.850688 0 0 1 36.567126-86.664087h7.130589a64.906648 64.906648 0 0 1 65.455154 61.0671 64.906648 64.906648 0 0 1 65.455155-61.0671h7.130589a54.850688 54.850688 0 0 1 36.567126 86.664087l-108.421527 114.455103z" fill="#E83B3D" p-id="1181"></path><path d="M309.252577 534.183355L182.913158 399.982005a79.716333 79.716333 0 0 1-7.49626-78.253648 73.134251 73.134251 0 0 1 59.055907-43.880551 85.018567 85.018567 0 0 1 9.690289 0 90.137964 90.137964 0 0 1 65.455154 28.339522 90.137964 90.137964 0 0 1 65.455154-28.339522 83.921553 83.921553 0 0 1 9.690289 0 73.134251 73.134251 0 0 1 59.055907 43.880551 79.716333 79.716333 0 0 1-7.49626 78.253648l-2.011192 2.559699z m-91.417814-161.443858l91.417814 95.805868 91.417813-95.805868A34.373098 34.373098 0 0 0 402.315911 340.194755a28.888029 28.888029 0 0 0-23.037289-18.283563 43.149208 43.149208 0 0 0-47.354428 38.212646h-45.160399a42.417865 42.417865 0 0 0-42.783537-38.578317h-4.570891a28.888029 28.888029 0 0 0-23.037289 18.283563 34.373098 34.373098 0 0 0 3.108206 32.910413z" fill="#D32A29" p-id="1182"></path></svg>